<svg width="108" height="108" viewBox="0 0 108 108" fill="none" xmlns="http://www.w3.org/2000/svg">
<path d="M90.8303 42.1539C90.8303 41.9434 90.8303 41.7328 90.8303 41.5347C90.8707 37.5516 90.1198 33.6 88.621 29.9084C87.1222 26.2169 84.9051 22.8585 82.0981 20.0277C79.2911 17.1968 75.9498 14.9496 72.2675 13.4159C68.5851 11.8823 64.6347 11.0926 60.6448 11.0926C56.6548 11.0926 52.7044 11.8823 49.022 13.4159C45.3396 14.9496 41.9984 17.1968 39.1914 20.0277C36.3844 22.8585 34.1673 26.2169 32.6685 29.9084C31.1697 33.6 30.4188 37.5516 30.4592 41.5347C30.4592 41.8907 30.4592 42.2437 30.4809 42.5966C27.5767 41.3616 24.4337 40.787 21.2795 40.9142C18.1254 41.0415 15.0391 41.8675 12.2441 43.3325C9.44921 44.7974 7.01563 46.8646 5.11966 49.3843C3.2237 51.904 1.91281 54.8132 1.28195 57.901C0.651091 60.9889 0.716052 64.1782 1.47213 67.2379C2.22821 70.2976 3.65648 73.1512 5.65348 75.5918C7.65049 78.0325 10.1662 79.9992 13.0185 81.3495C15.8708 82.6998 18.9882 83.3999 22.1449 83.399H83.5952C88.6041 83.4005 93.4531 81.6382 97.2888 78.4223C101.125 75.2064 103.701 70.743 104.566 65.8174C105.43 60.8918 104.526 55.8197 102.014 51.4937C99.5016 47.1676 95.5414 43.8647 90.8303 42.1663V42.1539Z" fill="#8CBED9"/>
<path d="M92.7623 39.8938C92.6138 35.8826 91.7189 31.934 90.1232 28.2497C89.874 27.7442 89.4396 27.3536 88.9099 27.159C88.3803 26.9644 87.7959 26.9805 87.2779 27.2041C86.7598 27.4277 86.3477 27.8416 86.1269 28.3601C85.9061 28.8786 85.8934 29.4621 86.0916 29.9897C87.2819 32.7435 88.0212 35.6705 88.2811 38.6585C84.913 38.0951 81.4624 38.2715 78.1696 39.1753C74.8768 40.0792 71.8209 41.6888 69.2148 43.892C66.6088 46.0953 64.5151 48.8393 63.0798 51.9328C61.6444 55.0263 60.9018 58.395 60.9037 61.8043C60.8925 62.0993 60.9412 62.3935 61.0466 62.6693C61.152 62.9451 61.3121 63.1969 61.5172 63.4095C61.7223 63.6221 61.9683 63.7913 62.2404 63.9068C62.5125 64.0223 62.8052 64.0818 63.1008 64.0818C63.3965 64.0818 63.6892 64.0223 63.9613 63.9068C64.2334 63.7913 64.4794 63.6221 64.6845 63.4095C64.8897 63.1969 65.0497 62.9451 65.1551 62.6693C65.2605 62.3935 65.3092 62.0993 65.298 61.8043C65.298 58.0354 66.4175 54.3511 68.5149 51.2174C70.6123 48.0837 73.5935 45.6412 77.0813 44.1989C80.5692 42.7566 84.4071 42.3792 88.1098 43.1145C91.8125 43.8498 95.2136 45.6647 97.8831 48.3297C100.553 50.9948 102.371 54.3902 103.107 58.0867C103.844 61.7832 103.466 65.6147 102.021 69.0968C100.576 72.5788 98.1296 75.5549 94.9906 77.6488C91.8516 79.7427 88.1612 80.8603 84.3859 80.8603H78.2983C78.0028 80.8492 77.7081 80.8978 77.4318 81.003C77.1556 81.1083 76.9034 81.2681 76.6904 81.4728C76.4775 81.6776 76.3081 81.9232 76.1923 82.1948C76.0766 82.4665 76.017 82.7587 76.017 83.0539C76.017 83.3491 76.0766 83.6412 76.1923 83.9129C76.3081 84.1845 76.4775 84.4301 76.6904 84.6349C76.9034 84.8397 77.1556 84.9995 77.4318 85.1047C77.7081 85.2099 78.0028 85.2585 78.2983 85.2474H84.3859C89.8735 85.245 95.187 83.324 99.4037 79.818C103.62 76.312 106.474 71.4424 107.469 66.0548C108.464 60.6671 107.537 55.1018 104.85 50.3251C102.163 45.5484 97.8851 41.8621 92.7592 39.9062L92.7623 39.8938Z" fill="#2E85B6"/>
<path d="M29.0264 80.848H23.5621C20.7685 80.8463 18.0094 80.2326 15.4794 79.05C12.9494 77.8675 10.7103 76.1449 8.92002 74.004C7.12978 71.8631 5.83206 69.356 5.11848 66.6596C4.40491 63.9632 4.29286 61.1434 4.79025 58.3991C5.28764 55.6547 6.38235 53.0529 7.9971 50.7771C9.61185 48.5013 11.7073 46.6071 14.1355 45.2282C16.5637 43.8493 19.2654 43.0193 22.0501 42.7967C24.8347 42.5742 27.6344 42.9646 30.2514 43.9403C30.7971 44.144 31.4015 44.123 31.9318 43.8821C32.4621 43.6412 32.8749 43.2 33.0797 42.6555C33.2133 42.2946 33.2507 41.9051 33.1882 41.5254C33.208 41.4098 33.2184 41.2928 33.2192 41.1756C33.2192 25.7884 45.593 13.2712 60.8044 13.2712C64.5563 13.2599 68.2699 14.0244 71.7114 15.5163C75.1529 17.0083 78.2477 19.1954 80.8009 21.94C80.9952 22.1624 81.2323 22.3435 81.4982 22.4723C81.7642 22.6011 82.0534 22.6751 82.3486 22.6898C82.6438 22.7045 82.9389 22.6597 83.2163 22.5579C83.4938 22.4562 83.7478 22.2996 83.9633 22.0976C84.1788 21.8957 84.3512 21.6524 84.4704 21.3823C84.5895 21.1123 84.6529 20.821 84.6568 20.526C84.6606 20.2309 84.6048 19.9381 84.4927 19.6651C84.3807 19.3921 84.2146 19.1444 84.0045 18.9369C81.0409 15.752 77.4487 13.2145 73.4542 11.4843C69.4596 9.75414 65.1494 8.8688 60.7951 8.88411C43.8966 8.88411 30.0188 22.197 28.8899 38.9619C25.6663 38.2111 22.32 38.1493 19.0707 38.7803C15.8214 39.4114 12.7425 40.7212 10.0359 42.6238C7.32926 44.5264 5.05617 46.9787 3.36569 49.82C1.67522 52.6613 0.605564 55.8273 0.226901 59.1103C-0.151762 62.3933 0.169121 65.7191 1.1685 68.8696C2.16788 72.0201 3.82318 74.924 6.0258 77.3909C8.22842 79.8579 10.9286 81.832 13.9492 83.1838C16.9698 84.5357 20.2425 85.2347 23.5528 85.235H29.0171C29.3126 85.2461 29.6073 85.1976 29.8835 85.0923C30.1598 84.9871 30.4119 84.8273 30.6249 84.6225C30.8379 84.4177 31.0073 84.1722 31.123 83.9005C31.2387 83.6289 31.2984 83.3367 31.2984 83.0415C31.2984 82.7463 31.2387 82.4541 31.123 82.1825C31.0073 81.9108 30.8379 81.6652 30.6249 81.4605C30.4119 81.2557 30.1598 81.0959 29.8835 80.9907C29.6073 80.8854 29.3126 80.8369 29.0171 80.848H29.0264Z" fill="#2E85B6"/>
<path d="M47.6542 71.7809V97.4664C47.6542 98.1476 47.4219 98.8009 47.0083 99.2826C46.5948 99.7643 46.0338 100.035 45.4489 100.035C44.8641 100.035 44.3031 99.7643 43.8896 99.2826C43.476 98.8009 43.2437 98.1476 43.2437 97.4664V71.7809C43.2437 71.0997 43.476 70.4463 43.8896 69.9646C44.3031 69.4829 44.8641 69.2123 45.4489 69.2123C46.0338 69.2123 46.5948 69.4829 47.0083 69.9646C47.4219 70.4463 47.6542 71.0997 47.6542 71.7809Z" fill="#2E85B6"/>
<path d="M55.0051 93.7741C55.003 94.1178 54.9038 94.4558 54.7163 94.7579C54.5287 95.0601 54.2586 95.3172 53.93 95.5062L46.7628 99.6801C46.2382 99.9259 45.6275 99.9918 45.0502 99.8648C44.473 99.7379 43.9708 99.4273 43.642 98.9938C43.3131 98.5604 43.1814 98.0353 43.2726 97.5214C43.3637 97.0076 43.6712 96.542 44.1348 96.2158L51.302 92.0419C51.8287 91.7398 52.4707 91.6318 53.0882 91.7412C53.7056 91.8507 54.2486 92.1687 54.5989 92.6262C54.8684 92.9623 55.0104 93.3638 55.0051 93.7741V93.7741Z" fill="#2E85B6"/>
<path d="M47.8378 97.9476C47.8432 98.3579 47.7012 98.7594 47.4317 99.0955C47.0814 99.5529 46.5384 99.871 45.9209 99.9805C45.3035 100.09 44.6615 99.9819 44.1348 99.6798L36.9676 95.5059C36.504 95.1797 36.1965 94.7141 36.1053 94.2002C36.0142 93.6864 36.1459 93.1613 36.4747 92.7279C36.8035 92.2944 37.3057 91.9838 37.883 91.8568C38.4603 91.7299 39.071 91.7958 39.5955 92.0416L46.7628 96.2155C47.0914 96.4045 47.3615 96.6616 47.549 96.9637C47.7366 97.2659 47.8358 97.6039 47.8378 97.9476V97.9476Z" fill="#2E85B6"/>
<path d="M60.2781 97.4315V71.746C60.2781 71.0648 60.5105 70.4114 60.9241 69.9297C61.3376 69.448 61.8985 69.1774 62.4834 69.1774C63.0683 69.1774 63.6292 69.448 64.0428 69.9297C64.4564 70.4114 64.6887 71.0648 64.6887 71.746V97.4315C64.6887 98.1127 64.4564 98.766 64.0428 99.2477C63.6292 99.7294 63.0683 100 62.4834 100C61.8985 100 61.3376 99.7294 60.9241 99.2477C60.5105 98.766 60.2781 98.1127 60.2781 97.4315Z" fill="#2E85B6"/>
<path d="M52.9273 75.4383C52.9293 75.0946 53.0285 74.7566 53.2161 74.4544C53.4037 74.1522 53.6737 73.8952 54.0024 73.7061L61.1696 69.5322C61.6942 69.2864 62.3049 69.2206 62.8821 69.3475C63.4594 69.4745 63.9616 69.7851 64.2904 70.2185C64.6192 70.652 64.751 71.1771 64.6598 71.6909C64.5686 72.2048 64.2612 72.6704 63.7976 72.9966L56.6304 77.1705C56.1037 77.4725 55.4617 77.5806 54.8442 77.4711C54.2267 77.3617 53.6837 77.0436 53.3335 76.5861C53.064 76.25 52.9219 75.8486 52.9273 75.4383V75.4383Z" fill="#2E85B6"/>
<path d="M60.0945 71.2647C60.0892 70.8544 60.2312 70.453 60.5007 70.1169C60.851 69.6594 61.394 69.3413 62.0114 69.2319C62.6289 69.1224 63.2709 69.2305 63.7976 69.5325L70.9648 73.7064C71.4284 74.0326 71.7359 74.4982 71.827 75.0121C71.9182 75.5259 71.7865 76.051 71.4577 76.4845C71.1288 76.9179 70.6266 77.2286 70.0494 77.3555C69.4721 77.4824 68.8614 77.4166 68.3368 77.1708L61.1696 72.9969C60.841 72.8078 60.5709 72.5508 60.3833 72.2486C60.1958 71.9464 60.0966 71.6084 60.0945 71.2647V71.2647Z" fill="#2E85B6"/>
</svg>
