<svg width="583" height="91" viewBox="0 0 583 91" fill="none" xmlns="http://www.w3.org/2000/svg">
<g clip-path="url(#clip0_301_61)">
<path d="M90.8303 33.1539C90.8303 32.9434 90.8303 32.7328 90.8303 32.5347C90.8707 28.5516 90.1198 24.6 88.621 20.9084C87.1222 17.2169 84.9051 13.8585 82.0981 11.0277C79.2911 8.19682 75.9498 5.94958 72.2675 4.41592C68.5851 2.88226 64.6347 2.09259 60.6448 2.09259C56.6548 2.09259 52.7044 2.88226 49.022 4.41592C45.3396 5.94958 41.9984 8.19682 39.1914 11.0277C36.3844 13.8585 34.1673 17.2169 32.6685 20.9084C31.1697 24.6 30.4188 28.5516 30.4592 32.5347C30.4592 32.8907 30.4592 33.2437 30.4809 33.5966C27.5767 32.3616 24.4337 31.787 21.2795 31.9142C18.1254 32.0415 15.0391 32.8675 12.2441 34.3325C9.44921 35.7974 7.01563 37.8646 5.11966 40.3843C3.2237 42.904 1.91281 45.8132 1.28195 48.901C0.651091 51.9889 0.716052 55.1782 1.47213 58.2379C2.22821 61.2976 3.65648 64.1512 5.65348 66.5918C7.65049 69.0325 10.1662 70.9992 13.0185 72.3495C15.8708 73.6998 18.9882 74.3999 22.1449 74.399H83.5952C88.6041 74.4005 93.4531 72.6382 97.2888 69.4223C101.125 66.2064 103.701 61.743 104.566 56.8174C105.43 51.8918 104.526 46.8197 102.014 42.4937C99.5016 38.1676 95.5414 34.8647 90.8303 33.1663V33.1539Z" fill="#8CBED9"/>
<path d="M92.7623 30.8938C92.6138 26.8826 91.7189 22.934 90.1232 19.2497C89.874 18.7442 89.4396 18.3536 88.9099 18.159C88.3803 17.9644 87.7959 17.9805 87.2779 18.2041C86.7598 18.4277 86.3477 18.8416 86.1269 19.3601C85.9061 19.8786 85.8934 20.4621 86.0916 20.9897C87.2819 23.7435 88.0212 26.6705 88.2811 29.6585C84.913 29.0951 81.4624 29.2715 78.1696 30.1753C74.8768 31.0792 71.8209 32.6888 69.2148 34.892C66.6088 37.0953 64.5151 39.8393 63.0798 42.9328C61.6444 46.0263 60.9018 49.395 60.9037 52.8043C60.8925 53.0993 60.9412 53.3935 61.0466 53.6693C61.152 53.9451 61.3121 54.1969 61.5172 54.4095C61.7223 54.6221 61.9683 54.7913 62.2404 54.9068C62.5125 55.0223 62.8052 55.0818 63.1008 55.0818C63.3965 55.0818 63.6892 55.0223 63.9613 54.9068C64.2334 54.7913 64.4794 54.6221 64.6845 54.4095C64.8897 54.1969 65.0497 53.9451 65.1551 53.6693C65.2605 53.3935 65.3092 53.0993 65.298 52.8043C65.298 49.0354 66.4175 45.3511 68.5149 42.2174C70.6123 39.0837 73.5935 36.6412 77.0813 35.1989C80.5692 33.7566 84.4071 33.3792 88.1098 34.1145C91.8125 34.8498 95.2136 36.6647 97.8831 39.3297C100.553 41.9948 102.371 45.3902 103.107 49.0867C103.844 52.7832 103.466 56.6147 102.021 60.0968C100.576 63.5788 98.1296 66.5549 94.9906 68.6488C91.8516 70.7427 88.1612 71.8603 84.3859 71.8603H78.2983C78.0028 71.8492 77.7081 71.8978 77.4318 72.003C77.1556 72.1083 76.9034 72.2681 76.6904 72.4728C76.4775 72.6776 76.3081 72.9232 76.1923 73.1948C76.0766 73.4665 76.017 73.7587 76.017 74.0539C76.017 74.3491 76.0766 74.6412 76.1923 74.9129C76.3081 75.1845 76.4775 75.4301 76.6904 75.6349C76.9034 75.8397 77.1556 75.9995 77.4318 76.1047C77.7081 76.2099 78.0028 76.2585 78.2983 76.2474H84.3859C89.8735 76.245 95.187 74.324 99.4037 70.818C103.62 67.312 106.474 62.4424 107.469 57.0548C108.464 51.6671 107.537 46.1018 104.85 41.3251C102.163 36.5484 97.8851 32.8621 92.7592 30.9062L92.7623 30.8938Z" fill="#2E85B6"/>
<path d="M29.0264 71.848H23.5621C20.7685 71.8463 18.0094 71.2326 15.4794 70.05C12.9494 68.8675 10.7103 67.1449 8.92002 65.004C7.12978 62.8631 5.83206 60.356 5.11848 57.6596C4.40491 54.9632 4.29286 52.1434 4.79025 49.3991C5.28764 46.6547 6.38235 44.0529 7.9971 41.7771C9.61185 39.5013 11.7073 37.6071 14.1355 36.2282C16.5637 34.8493 19.2654 34.0193 22.0501 33.7967C24.8347 33.5742 27.6344 33.9646 30.2514 34.9403C30.7971 35.144 31.4015 35.123 31.9318 34.8821C32.4621 34.6412 32.8749 34.2 33.0797 33.6555C33.2133 33.2946 33.2507 32.9051 33.1882 32.5254C33.208 32.4098 33.2184 32.2928 33.2192 32.1756C33.2192 16.7884 45.593 4.27116 60.8044 4.27116C64.5563 4.25994 68.2699 5.02437 71.7114 6.51632C75.1529 8.00826 78.2477 10.1954 80.8009 12.94C80.9952 13.1624 81.2323 13.3435 81.4982 13.4723C81.7642 13.6011 82.0534 13.6751 82.3486 13.6898C82.6438 13.7045 82.9389 13.6597 83.2163 13.5579C83.4938 13.4562 83.7478 13.2996 83.9633 13.0976C84.1788 12.8957 84.3512 12.6524 84.4704 12.3823C84.5895 12.1123 84.6529 11.821 84.6568 11.526C84.6606 11.2309 84.6048 10.9381 84.4927 10.6651C84.3807 10.3921 84.2146 10.1444 84.0045 9.93688C81.0409 6.75199 77.4487 4.21449 73.4542 2.48432C69.4596 0.754141 65.1494 -0.131197 60.7951 -0.115894C43.8966 -0.115894 30.0188 13.197 28.8899 29.9619C25.6663 29.2111 22.32 29.1493 19.0707 29.7803C15.8214 30.4114 12.7425 31.7212 10.0359 33.6238C7.32926 35.5264 5.05617 37.9787 3.36569 40.82C1.67522 43.6613 0.605564 46.8273 0.226901 50.1103C-0.151762 53.3933 0.169121 56.7191 1.1685 59.8696C2.16788 63.0201 3.82318 65.924 6.0258 68.3909C8.22842 70.8579 10.9286 72.832 13.9492 74.1838C16.9698 75.5357 20.2425 76.2347 23.5528 76.235H29.0171C29.3126 76.2461 29.6073 76.1976 29.8835 76.0923C30.1598 75.9871 30.4119 75.8273 30.6249 75.6225C30.8379 75.4177 31.0073 75.1722 31.123 74.9005C31.2387 74.6289 31.2984 74.3367 31.2984 74.0415C31.2984 73.7463 31.2387 73.4541 31.123 73.1825C31.0073 72.9108 30.8379 72.6652 30.6249 72.4605C30.4119 72.2557 30.1598 72.0959 29.8835 71.9907C29.6073 71.8854 29.3126 71.8369 29.0171 71.848H29.0264Z" fill="#2E85B6"/>
<path d="M47.6542 62.7809V88.4664C47.6542 89.1476 47.4219 89.8009 47.0083 90.2826C46.5948 90.7643 46.0338 91.0349 45.4489 91.0349C44.8641 91.0349 44.3031 90.7643 43.8896 90.2826C43.476 89.8009 43.2437 89.1476 43.2437 88.4664V62.7809C43.2437 62.0997 43.476 61.4463 43.8896 60.9646C44.3031 60.4829 44.8641 60.2123 45.4489 60.2123C46.0338 60.2123 46.5948 60.4829 47.0083 60.9646C47.4219 61.4463 47.6542 62.0997 47.6542 62.7809Z" fill="#2E85B6"/>
<path d="M55.0051 84.7741C55.003 85.1178 54.9038 85.4558 54.7163 85.7579C54.5287 86.0601 54.2586 86.3172 53.93 86.5062L46.7628 90.6801C46.2382 90.9259 45.6275 90.9918 45.0502 90.8648C44.473 90.7379 43.9708 90.4273 43.642 89.9938C43.3131 89.5604 43.1814 89.0353 43.2726 88.5214C43.3637 88.0076 43.6712 87.542 44.1348 87.2158L51.302 83.0419C51.8287 82.7398 52.4707 82.6318 53.0882 82.7412C53.7056 82.8507 54.2486 83.1687 54.5989 83.6262C54.8684 83.9623 55.0104 84.3638 55.0051 84.7741V84.7741Z" fill="#2E85B6"/>
<path d="M47.8378 88.9476C47.8432 89.3579 47.7012 89.7594 47.4317 90.0955C47.0814 90.5529 46.5384 90.871 45.9209 90.9805C45.3035 91.0899 44.6615 90.9819 44.1348 90.6798L36.9676 86.5059C36.504 86.1797 36.1965 85.7141 36.1053 85.2002C36.0142 84.6864 36.1459 84.1613 36.4747 83.7279C36.8035 83.2944 37.3057 82.9838 37.883 82.8568C38.4603 82.7299 39.071 82.7958 39.5955 83.0416L46.7628 87.2155C47.0914 87.4045 47.3615 87.6616 47.549 87.9637C47.7366 88.2659 47.8358 88.6039 47.8378 88.9476V88.9476Z" fill="#2E85B6"/>
<path d="M60.2781 88.4315V62.746C60.2781 62.0648 60.5105 61.4114 60.9241 60.9297C61.3376 60.448 61.8985 60.1774 62.4834 60.1774C63.0683 60.1774 63.6292 60.448 64.0428 60.9297C64.4564 61.4114 64.6887 62.0648 64.6887 62.746V88.4315C64.6887 89.1127 64.4564 89.766 64.0428 90.2477C63.6292 90.7294 63.0683 91 62.4834 91C61.8985 91 61.3376 90.7294 60.9241 90.2477C60.5105 89.766 60.2781 89.1127 60.2781 88.4315Z" fill="#2E85B6"/>
<path d="M52.9273 66.4383C52.9293 66.0946 53.0285 65.7566 53.2161 65.4544C53.4037 65.1522 53.6737 64.8952 54.0024 64.7061L61.1696 60.5322C61.6942 60.2864 62.3049 60.2206 62.8821 60.3475C63.4594 60.4745 63.9616 60.7851 64.2904 61.2185C64.6192 61.652 64.751 62.1771 64.6598 62.6909C64.5686 63.2048 64.2612 63.6704 63.7976 63.9966L56.6304 68.1705C56.1037 68.4725 55.4617 68.5806 54.8442 68.4711C54.2267 68.3617 53.6837 68.0436 53.3335 67.5861C53.064 67.25 52.9219 66.8486 52.9273 66.4383V66.4383Z" fill="#2E85B6"/>
<path d="M60.0945 62.2647C60.0892 61.8544 60.2312 61.453 60.5007 61.1169C60.851 60.6594 61.394 60.3413 62.0114 60.2319C62.6289 60.1224 63.2709 60.2305 63.7976 60.5325L70.9648 64.7064C71.4284 65.0326 71.7359 65.4982 71.827 66.0121C71.9182 66.5259 71.7865 67.051 71.4577 67.4845C71.1288 67.9179 70.6266 68.2286 70.0494 68.3555C69.4721 68.4824 68.8614 68.4166 68.3368 68.1708L61.1696 63.9969C60.841 63.8078 60.5709 63.5508 60.3833 63.2486C60.1958 62.9464 60.0966 62.6084 60.0945 62.2647V62.2647Z" fill="#2E85B6"/>
</g>
<path d="M129.55 47H125.3C124.6 47 124.25 46.65 124.25 45.95V15.9C124.25 15.2 124.6 14.85 125.3 14.85H137.5C140.1 14.85 142.117 15.5667 143.55 17C144.983 18.4 145.7 20.4 145.7 23V27.8C145.7 30.4 144.983 32.4167 143.55 33.85C142.117 35.25 140.1 35.95 137.5 35.95H131.2C130.8 35.95 130.6 36.1333 130.6 36.5V45.95C130.6 46.65 130.25 47 129.55 47ZM131.15 30.4H136.45C137.517 30.4 138.267 30.1833 138.7 29.75C139.133 29.2833 139.35 28.5333 139.35 27.5V23.3C139.35 22.2333 139.133 21.4833 138.7 21.05C138.267 20.5833 137.517 20.35 136.45 20.35H131.15C130.783 20.35 130.6 20.5333 130.6 20.9V29.85C130.6 30.2167 130.783 30.4 131.15 30.4ZM169.064 47H158.014C155.38 47 153.347 46.3 151.914 44.9C150.48 43.5 149.764 41.4833 149.764 38.85V29.65C149.764 27.0167 150.48 25 151.914 23.6C153.347 22.2 155.38 21.5 158.014 21.5H161.964C164.597 21.5 166.63 22.2 168.064 23.6C169.497 25 170.214 27.0167 170.214 29.65V36C170.214 36.7 169.864 37.05 169.164 37.05H156.614C156.214 37.05 156.014 37.2333 156.014 37.6V38.7C156.014 39.7333 156.23 40.4833 156.664 40.95C157.13 41.3833 157.897 41.6 158.964 41.6H169.064C169.764 41.6 170.114 41.9667 170.114 42.7V46C170.114 46.3667 170.03 46.6333 169.864 46.8C169.73 46.9333 169.464 47 169.064 47ZM156.614 32.8H163.414C163.78 32.8 163.964 32.6167 163.964 32.25V29.85C163.964 28.7833 163.747 28.0333 163.314 27.6C162.88 27.1667 162.13 26.95 161.064 26.95H158.964C157.897 26.95 157.147 27.1667 156.714 27.6C156.28 28.0333 156.064 28.7833 156.064 29.85V32.25C156.064 32.6167 156.247 32.8 156.614 32.8ZM180.271 47H176.021C175.321 47 174.971 46.65 174.971 45.95V22.55C174.971 21.85 175.321 21.5 176.021 21.5H180.271C180.971 21.5 181.321 21.85 181.321 22.55V24.25H181.521C181.887 23.35 182.537 22.6667 183.471 22.2C184.404 21.7333 185.387 21.5 186.421 21.5H188.221C188.887 21.5 189.221 21.85 189.221 22.55V26C189.221 26.4 189.137 26.6833 188.971 26.85C188.837 26.9833 188.587 27.0333 188.221 27H184.771C182.471 27 181.321 28.3 181.321 30.9V45.95C181.321 46.65 180.971 47 180.271 47ZM201.652 21.5H205.652C206.052 21.5 206.319 21.5833 206.452 21.75C206.619 21.8833 206.702 22.1333 206.702 22.5V25.95C206.702 26.65 206.352 27 205.652 27H201.652C201.286 27 201.102 27.1833 201.102 27.55V45.95C201.102 46.65 200.736 47 200.002 47H195.802C195.102 47 194.752 46.65 194.752 45.95V27.55C194.752 27.1833 194.552 27 194.152 27H191.852C191.152 27 190.802 26.65 190.802 25.95V22.5C190.802 22.1 190.869 21.8333 191.002 21.7C191.169 21.5667 191.452 21.5 191.852 21.5H194.152C194.552 21.5 194.752 21.3167 194.752 20.95V20C194.752 17.3667 195.436 15.35 196.802 13.95C198.202 12.55 200.219 11.85 202.852 11.85H205.702C206.102 11.85 206.369 11.9333 206.502 12.1C206.636 12.2333 206.702 12.4833 206.702 12.85V16.3C206.702 17 206.369 17.35 205.702 17.35H203.852C202.786 17.35 202.052 17.5833 201.652 18.05C201.286 18.4833 201.102 19.2333 201.102 20.3V20.95C201.102 21.3167 201.286 21.5 201.652 21.5ZM228.878 47H217.828C215.195 47 213.161 46.3 211.728 44.9C210.295 43.5 209.578 41.4833 209.578 38.85V29.65C209.578 27.0167 210.295 25 211.728 23.6C213.161 22.2 215.195 21.5 217.828 21.5H221.778C224.411 21.5 226.445 22.2 227.878 23.6C229.311 25 230.028 27.0167 230.028 29.65V36C230.028 36.7 229.678 37.05 228.978 37.05H216.428C216.028 37.05 215.828 37.2333 215.828 37.6V38.7C215.828 39.7333 216.045 40.4833 216.478 40.95C216.945 41.3833 217.711 41.6 218.778 41.6H228.878C229.578 41.6 229.928 41.9667 229.928 42.7V46C229.928 46.3667 229.845 46.6333 229.678 46.8C229.545 46.9333 229.278 47 228.878 47ZM216.428 32.8H223.228C223.595 32.8 223.778 32.6167 223.778 32.25V29.85C223.778 28.7833 223.561 28.0333 223.128 27.6C222.695 27.1667 221.945 26.95 220.878 26.95H218.778C217.711 26.95 216.961 27.1667 216.528 27.6C216.095 28.0333 215.878 28.7833 215.878 29.85V32.25C215.878 32.6167 216.061 32.8 216.428 32.8ZM251.035 42.55V46C251.035 46.3667 250.952 46.6333 250.785 46.8C250.652 46.9333 250.385 47 249.985 47H242.535C239.902 47 237.868 46.3 236.435 44.9C235.002 43.5 234.285 41.4833 234.285 38.85V29.65C234.285 27.0167 235.002 25 236.435 23.6C237.868 22.2 239.902 21.5 242.535 21.5H249.985C250.685 21.5 251.035 21.85 251.035 22.55V26C251.035 26.3667 250.952 26.6333 250.785 26.8C250.652 26.9333 250.385 27 249.985 27H243.535C242.502 27 241.752 27.2333 241.285 27.7C240.852 28.1333 240.635 28.8833 240.635 29.95V38.55C240.635 39.6167 240.852 40.3833 241.285 40.85C241.752 41.2833 242.502 41.5 243.535 41.5H249.985C250.685 41.5 251.035 41.85 251.035 42.55ZM255.892 27H253.892C253.492 27 253.208 26.9333 253.042 26.8C252.908 26.6667 252.842 26.4 252.842 26V22.55C252.842 21.85 253.192 21.5 253.892 21.5H255.892C256.258 21.5 256.442 21.3167 256.442 20.95V16.2C256.442 15.5 256.808 15.15 257.542 15.15H261.742C262.442 15.15 262.792 15.5 262.792 16.2V20.95C262.792 21.3167 262.992 21.5 263.392 21.5H267.292C267.992 21.5 268.342 21.85 268.342 22.55V26C268.342 26.3667 268.258 26.6333 268.092 26.8C267.958 26.9333 267.692 27 267.292 27H263.392C262.992 27 262.792 27.1833 262.792 27.55V38.6C262.792 39.6333 263.025 40.3833 263.492 40.85C263.958 41.2833 264.725 41.5 265.792 41.5H267.792C268.492 41.5 268.842 41.85 268.842 42.55V46C268.842 46.3667 268.758 46.6333 268.592 46.8C268.458 46.9333 268.192 47 267.792 47H264.742C262.108 47 260.058 46.3 258.592 44.9C257.158 43.5 256.442 41.5 256.442 38.9V27.55C256.442 27.1833 256.258 27 255.892 27ZM297.655 47H292.205C289.572 47 287.538 46.3 286.105 44.9C284.672 43.5 283.955 41.4833 283.955 38.85V23C283.955 20.3667 284.672 18.35 286.105 16.95C287.538 15.55 289.572 14.85 292.205 14.85H297.655C300.255 14.85 302.272 15.5667 303.705 17C305.172 18.4 305.905 20.4 305.905 23V25.35C305.905 26.0833 305.538 26.45 304.805 26.45H300.605C299.905 26.45 299.555 26.0833 299.555 25.35V23.3C299.555 22.2333 299.322 21.4833 298.855 21.05C298.422 20.5833 297.672 20.35 296.605 20.35H293.205C292.172 20.35 291.422 20.5833 290.955 21.05C290.522 21.4833 290.305 22.2333 290.305 23.3V38.55C290.305 39.6167 290.522 40.3833 290.955 40.85C291.422 41.2833 292.172 41.5 293.205 41.5H296.605C297.672 41.5 298.422 41.2833 298.855 40.85C299.322 40.3833 299.555 39.6167 299.555 38.55V36.5C299.555 35.7667 299.905 35.4 300.605 35.4H304.805C305.538 35.4 305.905 35.7667 305.905 36.5V38.85C305.905 41.45 305.172 43.4667 303.705 44.9C302.272 46.3 300.255 47 297.655 47ZM316.409 47H312.159C311.459 47 311.109 46.65 311.109 45.95V12.9C311.109 12.2 311.459 11.85 312.159 11.85H316.409C317.109 11.85 317.459 12.2 317.459 12.9V45.95C317.459 46.65 317.109 47 316.409 47ZM335.413 47H330.963C328.33 47 326.296 46.3 324.863 44.9C323.43 43.5 322.713 41.4833 322.713 38.85V29.65C322.713 27.0167 323.43 25 324.863 23.6C326.296 22.2 328.33 21.5 330.963 21.5H335.413C338.013 21.5 340.03 22.2167 341.463 23.65C342.93 25.05 343.663 27.05 343.663 29.65V38.85C343.663 41.45 342.93 43.4667 341.463 44.9C340.03 46.3 338.013 47 335.413 47ZM331.913 41.55H334.463C335.53 41.55 336.28 41.3333 336.713 40.9C337.18 40.4667 337.413 39.7167 337.413 38.65V29.85C337.413 28.7833 337.18 28.0333 336.713 27.6C336.28 27.1667 335.53 26.95 334.463 26.95H331.913C330.846 26.95 330.096 27.1667 329.663 27.6C329.23 28.0333 329.013 28.7833 329.013 29.85V38.65C329.013 39.7167 329.23 40.4667 329.663 40.9C330.096 41.3333 330.846 41.55 331.913 41.55ZM357.852 47H356.202C353.636 47 351.686 46.3 350.352 44.9C349.052 43.5 348.402 41.4833 348.402 38.85V22.55C348.402 21.85 348.752 21.5 349.452 21.5H353.702C354.402 21.5 354.752 21.85 354.752 22.55V38.55C354.752 39.6167 354.969 40.3833 355.402 40.85C355.869 41.2833 356.619 41.5 357.652 41.5H359.502C361.802 41.5 362.952 40.2333 362.952 37.7V22.55C362.952 21.85 363.302 21.5 364.002 21.5H368.202C368.936 21.5 369.302 21.85 369.302 22.55V45.95C369.302 46.65 368.936 47 368.202 47H364.002C363.302 47 362.952 46.65 362.952 45.95V44.3H362.752C362.386 45.2 361.736 45.8833 360.802 46.35C359.869 46.7833 358.886 47 357.852 47ZM384.174 47H382.124C379.558 47 377.608 46.3 376.274 44.9C374.974 43.5 374.324 41.4833 374.324 38.85V29.65C374.324 27.0167 374.974 25 376.274 23.6C377.608 22.2 379.558 21.5 382.124 21.5H384.174C385.208 21.5 386.191 21.7333 387.124 22.2C388.058 22.6333 388.708 23.3 389.074 24.2H389.274V12.9C389.274 12.2 389.624 11.85 390.324 11.85H394.574C395.274 11.85 395.624 12.2 395.624 12.9V45.95C395.624 46.65 395.274 47 394.574 47H390.324C389.624 47 389.274 46.65 389.274 45.95V44.3H389.074C388.708 45.2 388.058 45.8833 387.124 46.35C386.191 46.7833 385.208 47 384.174 47ZM389.274 37.7V30.8C389.274 28.2667 388.124 27 385.824 27H383.574C382.508 27 381.758 27.2333 381.324 27.7C380.891 28.1333 380.674 28.8833 380.674 29.95V38.55C380.674 39.6167 380.891 40.3833 381.324 40.85C381.758 41.2833 382.508 41.5 383.574 41.5H385.824C388.124 41.5 389.274 40.2333 389.274 37.7ZM417.829 47H413.679C412.979 47 412.629 46.65 412.629 45.95V15.9C412.629 15.2 412.979 14.85 413.679 14.85H417.429C418.129 14.85 418.596 15.0833 418.829 15.55L428.929 34.5H429.129V15.9C429.129 15.2 429.479 14.85 430.179 14.85H434.329C435.029 14.85 435.379 15.2 435.379 15.9V45.95C435.379 46.65 435.029 47 434.329 47H430.679C429.946 47 429.412 46.6667 429.079 46L419.079 27.4H418.879V45.95C418.879 46.65 418.529 47 417.829 47ZM460.177 47H449.127C446.494 47 444.46 46.3 443.027 44.9C441.594 43.5 440.877 41.4833 440.877 38.85V29.65C440.877 27.0167 441.594 25 443.027 23.6C444.46 22.2 446.494 21.5 449.127 21.5H453.077C455.71 21.5 457.744 22.2 459.177 23.6C460.61 25 461.327 27.0167 461.327 29.65V36C461.327 36.7 460.977 37.05 460.277 37.05H447.727C447.327 37.05 447.127 37.2333 447.127 37.6V38.7C447.127 39.7333 447.344 40.4833 447.777 40.95C448.244 41.3833 449.01 41.6 450.077 41.6H460.177C460.877 41.6 461.227 41.9667 461.227 42.7V46C461.227 46.3667 461.144 46.6333 460.977 46.8C460.844 46.9333 460.577 47 460.177 47ZM447.727 32.8H454.527C454.894 32.8 455.077 32.6167 455.077 32.25V29.85C455.077 28.7833 454.86 28.0333 454.427 27.6C453.994 27.1667 453.244 26.95 452.177 26.95H450.077C449.01 26.95 448.26 27.1667 447.827 27.6C447.394 28.0333 447.177 28.7833 447.177 29.85V32.25C447.177 32.6167 447.36 32.8 447.727 32.8ZM466.634 27H464.634C464.234 27 463.951 26.9333 463.784 26.8C463.651 26.6667 463.584 26.4 463.584 26V22.55C463.584 21.85 463.934 21.5 464.634 21.5H466.634C467.001 21.5 467.184 21.3167 467.184 20.95V16.2C467.184 15.5 467.551 15.15 468.284 15.15H472.484C473.184 15.15 473.534 15.5 473.534 16.2V20.95C473.534 21.3167 473.734 21.5 474.134 21.5H478.034C478.734 21.5 479.084 21.85 479.084 22.55V26C479.084 26.3667 479.001 26.6333 478.834 26.8C478.701 26.9333 478.434 27 478.034 27H474.134C473.734 27 473.534 27.1833 473.534 27.55V38.6C473.534 39.6333 473.767 40.3833 474.234 40.85C474.701 41.2833 475.467 41.5 476.534 41.5H478.534C479.234 41.5 479.584 41.85 479.584 42.55V46C479.584 46.3667 479.501 46.6333 479.334 46.8C479.201 46.9333 478.934 47 478.534 47H475.484C472.851 47 470.801 46.3 469.334 44.9C467.901 43.5 467.184 41.5 467.184 38.9V27.55C467.184 27.1833 467.001 27 466.634 27ZM493.911 47H488.211C487.578 47 487.178 46.65 487.011 45.95L482.011 22.55C481.878 21.85 482.128 21.5 482.761 21.5H487.561C488.294 21.5 488.694 21.85 488.761 22.55L491.011 39.65H491.411L494.961 22.55C495.061 21.85 495.444 21.5 496.111 21.5H500.511C501.211 21.5 501.628 21.85 501.761 22.55L505.211 39.65H505.611L507.911 22.55C508.011 21.85 508.411 21.5 509.111 21.5H513.911C514.578 21.5 514.828 21.85 514.661 22.55L509.661 45.95C509.528 46.65 509.128 47 508.461 47H502.761C502.094 47 501.694 46.65 501.561 45.95L498.511 29.05H498.111L495.111 45.95C495.011 46.65 494.611 47 493.911 47ZM530.725 47H526.275C523.642 47 521.609 46.3 520.175 44.9C518.742 43.5 518.025 41.4833 518.025 38.85V29.65C518.025 27.0167 518.742 25 520.175 23.6C521.609 22.2 523.642 21.5 526.275 21.5H530.725C533.325 21.5 535.342 22.2167 536.775 23.65C538.242 25.05 538.975 27.05 538.975 29.65V38.85C538.975 41.45 538.242 43.4667 536.775 44.9C535.342 46.3 533.325 47 530.725 47ZM527.225 41.55H529.775C530.842 41.55 531.592 41.3333 532.025 40.9C532.492 40.4667 532.725 39.7167 532.725 38.65V29.85C532.725 28.7833 532.492 28.0333 532.025 27.6C531.592 27.1667 530.842 26.95 529.775 26.95H527.225C526.159 26.95 525.409 27.1667 524.975 27.6C524.542 28.0333 524.325 28.7833 524.325 29.85V38.65C524.325 39.7167 524.542 40.4667 524.975 40.9C525.409 41.3333 526.159 41.55 527.225 41.55ZM549.265 47H545.015C544.315 47 543.965 46.65 543.965 45.95V22.55C543.965 21.85 544.315 21.5 545.015 21.5H549.265C549.965 21.5 550.315 21.85 550.315 22.55V24.25H550.515C550.882 23.35 551.532 22.6667 552.465 22.2C553.398 21.7333 554.382 21.5 555.415 21.5H557.215C557.882 21.5 558.215 21.85 558.215 22.55V26C558.215 26.4 558.132 26.6833 557.965 26.85C557.832 26.9833 557.582 27.0333 557.215 27H553.765C551.465 27 550.315 28.3 550.315 30.9V45.95C550.315 46.65 549.965 47 549.265 47ZM575.996 21.5H580.846C581.246 21.5 581.513 21.6167 581.646 21.85C581.78 22.0833 581.73 22.3833 581.496 22.75L574.846 33.7V33.9L581.796 45.75C581.996 46.0833 582.013 46.3833 581.846 46.65C581.68 46.8833 581.38 47 580.946 47H576.646C576.08 47 575.663 46.9333 575.396 46.8C575.163 46.6667 574.913 46.3833 574.646 45.95L568.296 34.8C567.996 34.2667 567.996 33.7167 568.296 33.15L574.296 22.5C574.663 21.8333 575.23 21.5 575.996 21.5ZM566.696 47H562.446C561.746 47 561.396 46.65 561.396 45.95V12.9C561.396 12.2 561.746 11.85 562.446 11.85H566.696C567.396 11.85 567.746 12.2 567.746 12.9V45.95C567.746 46.65 567.396 47 566.696 47Z" fill="#333333"/>
<path d="M127.672 73H126.16C125.888 73 125.752 72.864 125.752 72.592V57.976C125.752 57.704 125.888 57.568 126.16 57.568H131.776C132.944 57.568 133.856 57.904 134.512 58.576C135.184 59.232 135.52 60.144 135.52 61.312V63.328C135.52 65.168 134.76 66.328 133.24 66.808V66.904L135.904 72.52C136.08 72.84 135.976 73 135.592 73H134.104C133.72 73 133.472 72.864 133.36 72.592L130.792 67.072H128.368C128.176 67.072 128.08 67.152 128.08 67.312V72.592C128.08 72.864 127.944 73 127.672 73ZM128.344 65.152H131.392C132.576 65.152 133.168 64.568 133.168 63.4V61.384C133.168 60.2 132.576 59.608 131.392 59.608H128.344C128.168 59.608 128.08 59.688 128.08 59.848V64.912C128.08 65.072 128.168 65.152 128.344 65.152ZM147.184 73H142C140.816 73 139.896 72.672 139.24 72.016C138.6 71.36 138.28 70.448 138.28 69.28V64.48C138.28 63.296 138.6 62.384 139.24 61.744C139.896 61.088 140.816 60.76 142 60.76H143.968C145.152 60.76 146.072 61.088 146.728 61.744C147.384 62.384 147.712 63.296 147.712 64.48V67.528C147.712 67.816 147.568 67.96 147.28 67.96H140.848C140.672 67.96 140.584 68.04 140.584 68.2V69.232C140.584 70.4 141.168 70.984 142.336 70.984H147.184C147.472 70.984 147.616 71.128 147.616 71.416V72.616C147.616 72.872 147.472 73 147.184 73ZM140.848 66.328H145.144C145.304 66.328 145.384 66.248 145.384 66.088V64.552C145.384 63.944 145.248 63.504 144.976 63.232C144.704 62.944 144.264 62.8 143.656 62.8H142.336C141.728 62.8 141.288 62.944 141.016 63.232C140.744 63.504 140.608 63.944 140.608 64.552V66.088C140.608 66.248 140.688 66.328 140.848 66.328ZM152.396 73H150.884C150.612 73 150.476 72.864 150.476 72.592V56.536C150.476 56.264 150.612 56.128 150.884 56.128H152.396C152.668 56.128 152.804 56.264 152.804 56.536V72.592C152.804 72.864 152.668 73 152.396 73ZM156.077 58.72V56.536C156.077 56.28 156.205 56.152 156.461 56.152H158.021C158.277 56.152 158.405 56.28 158.405 56.536V58.72C158.405 58.992 158.277 59.128 158.021 59.128H156.461C156.205 59.128 156.077 58.992 156.077 58.72ZM156.077 72.592V61.168C156.077 60.896 156.205 60.76 156.461 60.76H157.997C158.269 60.76 158.405 60.896 158.405 61.168V72.592C158.405 72.752 158.373 72.864 158.309 72.928C158.261 72.976 158.165 73 158.021 73H156.485C156.213 73 156.077 72.864 156.077 72.592ZM165.975 73H165.039C163.855 73 162.935 72.672 162.279 72.016C161.639 71.36 161.319 70.448 161.319 69.28V64.48C161.319 63.296 161.639 62.384 162.279 61.744C162.935 61.088 163.855 60.76 165.039 60.76H170.415C170.703 60.76 170.847 60.896 170.847 61.168V72.592C170.847 72.864 170.703 73 170.415 73H168.903C168.631 73 168.495 72.864 168.495 72.592V71.728H168.399C168.015 72.576 167.207 73 165.975 73ZM168.495 68.92V63.04C168.495 62.88 168.407 62.8 168.231 62.8H165.375C164.223 62.8 163.647 63.392 163.647 64.576V69.184C163.647 70.368 164.223 70.96 165.375 70.96H166.527C167.839 70.96 168.495 70.28 168.495 68.92ZM176.432 70.96H179.408C180.56 70.96 181.136 70.368 181.136 69.184V64.48C181.136 63.296 180.56 62.704 179.408 62.704H178.136C176.824 62.704 176.168 63.376 176.168 64.72V70.696C176.168 70.872 176.256 70.96 176.432 70.96ZM173.84 72.592V56.536C173.84 56.264 173.976 56.128 174.248 56.128H175.76C176.032 56.128 176.168 56.264 176.168 56.536V61.96H176.264C176.664 61.096 177.472 60.664 178.688 60.664H179.744C180.928 60.664 181.848 60.992 182.504 61.648C183.16 62.288 183.488 63.192 183.488 64.36V69.28C183.488 70.448 183.16 71.36 182.504 72.016C181.848 72.672 180.928 73 179.744 73H174.248C173.976 73 173.84 72.864 173.84 72.592ZM188.302 73H186.79C186.518 73 186.382 72.864 186.382 72.592V56.536C186.382 56.264 186.518 56.128 186.79 56.128H188.302C188.574 56.128 188.71 56.264 188.71 56.536V72.592C188.71 72.864 188.574 73 188.302 73ZM200.528 73H195.344C194.16 73 193.24 72.672 192.584 72.016C191.944 71.36 191.624 70.448 191.624 69.28V64.48C191.624 63.296 191.944 62.384 192.584 61.744C193.24 61.088 194.16 60.76 195.344 60.76H197.312C198.496 60.76 199.416 61.088 200.072 61.744C200.728 62.384 201.056 63.296 201.056 64.48V67.528C201.056 67.816 200.912 67.96 200.624 67.96H194.192C194.016 67.96 193.928 68.04 193.928 68.2V69.232C193.928 70.4 194.512 70.984 195.68 70.984H200.528C200.816 70.984 200.96 71.128 200.96 71.416V72.616C200.96 72.872 200.816 73 200.528 73ZM194.192 66.328H198.488C198.648 66.328 198.728 66.248 198.728 66.088V64.552C198.728 63.944 198.592 63.504 198.32 63.232C198.048 62.944 197.608 62.8 197 62.8H195.68C195.072 62.8 194.632 62.944 194.36 63.232C194.088 63.504 193.952 63.944 193.952 64.552V66.088C193.952 66.248 194.032 66.328 194.192 66.328ZM214.314 73H211.77C211.482 73 211.314 72.864 211.266 72.592L208.41 57.976C208.378 57.704 208.514 57.568 208.818 57.568H210.666C210.97 57.568 211.13 57.704 211.146 57.976L213.09 70.552H213.234L216.066 57.928C216.098 57.688 216.242 57.568 216.498 57.568H218.514C218.77 57.568 218.922 57.688 218.97 57.928L221.826 70.552H221.97L223.914 58C223.93 57.712 224.09 57.568 224.394 57.568H226.242C226.562 57.568 226.698 57.712 226.65 58L223.794 72.592C223.746 72.864 223.586 73 223.314 73H220.77C220.498 73 220.338 72.864 220.29 72.592L217.578 60.448H217.482L214.77 72.592C214.722 72.864 214.57 73 214.314 73ZM237.324 73H232.14C230.956 73 230.036 72.672 229.38 72.016C228.74 71.36 228.42 70.448 228.42 69.28V64.48C228.42 63.296 228.74 62.384 229.38 61.744C230.036 61.088 230.956 60.76 232.14 60.76H234.108C235.292 60.76 236.212 61.088 236.868 61.744C237.524 62.384 237.852 63.296 237.852 64.48V67.528C237.852 67.816 237.708 67.96 237.42 67.96H230.988C230.812 67.96 230.724 68.04 230.724 68.2V69.232C230.724 70.4 231.308 70.984 232.476 70.984H237.324C237.612 70.984 237.756 71.128 237.756 71.416V72.616C237.756 72.872 237.612 73 237.324 73ZM230.988 66.328H235.284C235.444 66.328 235.524 66.248 235.524 66.088V64.552C235.524 63.944 235.388 63.504 235.116 63.232C234.844 62.944 234.404 62.8 233.796 62.8H232.476C231.868 62.8 231.428 62.944 231.156 63.232C230.884 63.504 230.748 63.944 230.748 64.552V66.088C230.748 66.248 230.828 66.328 230.988 66.328ZM243.088 70.96H246.064C247.216 70.96 247.792 70.368 247.792 69.184V64.48C247.792 63.296 247.216 62.704 246.064 62.704H244.792C243.48 62.704 242.824 63.376 242.824 64.72V70.696C242.824 70.872 242.912 70.96 243.088 70.96ZM240.496 72.592V56.536C240.496 56.264 240.632 56.128 240.904 56.128H242.416C242.688 56.128 242.824 56.264 242.824 56.536V61.96H242.92C243.32 61.096 244.128 60.664 245.344 60.664H246.4C247.584 60.664 248.504 60.992 249.16 61.648C249.816 62.288 250.144 63.192 250.144 64.36V69.28C250.144 70.448 249.816 71.36 249.16 72.016C248.504 72.672 247.584 73 246.4 73H240.904C240.632 73 240.496 72.864 240.496 72.592ZM258.589 69.256V68.632C258.589 68.36 258.725 68.224 258.997 68.224H260.533C260.805 68.224 260.941 68.36 260.941 68.632V69.064C260.941 69.736 261.085 70.224 261.373 70.528C261.677 70.816 262.173 70.96 262.861 70.96H264.517C265.205 70.96 265.701 70.808 266.005 70.504C266.309 70.184 266.461 69.672 266.461 68.968V68.416C266.461 67.904 266.261 67.504 265.861 67.216C265.477 66.912 264.997 66.72 264.421 66.64C263.845 66.544 263.213 66.416 262.525 66.256C261.837 66.096 261.205 65.912 260.629 65.704C260.053 65.496 259.565 65.104 259.165 64.528C258.781 63.952 258.589 63.216 258.589 62.32V61.312C258.589 60.144 258.917 59.232 259.573 58.576C260.245 57.904 261.165 57.568 262.333 57.568H264.877C266.061 57.568 266.981 57.904 267.637 58.576C268.309 59.232 268.645 60.144 268.645 61.312V61.84C268.645 62.112 268.509 62.248 268.237 62.248H266.701C266.429 62.248 266.293 62.112 266.293 61.84V61.528C266.293 60.84 266.141 60.352 265.837 60.064C265.549 59.76 265.061 59.608 264.373 59.608H262.861C262.173 59.608 261.677 59.768 261.373 60.088C261.085 60.392 260.941 60.92 260.941 61.672V62.416C260.941 63.136 261.461 63.624 262.501 63.88C262.965 63.992 263.469 64.088 264.013 64.168C264.573 64.248 265.133 64.368 265.693 64.528C266.253 64.688 266.765 64.904 267.229 65.176C267.693 65.432 268.069 65.832 268.357 66.376C268.645 66.904 268.789 67.552 268.789 68.32V69.256C268.789 70.424 268.453 71.344 267.781 72.016C267.125 72.672 266.213 73 265.045 73H262.357C261.189 73 260.269 72.672 259.597 72.016C258.925 71.344 258.589 70.424 258.589 69.256ZM280.449 73H275.265C274.081 73 273.161 72.672 272.505 72.016C271.865 71.36 271.545 70.448 271.545 69.28V64.48C271.545 63.296 271.865 62.384 272.505 61.744C273.161 61.088 274.081 60.76 275.265 60.76H277.233C278.417 60.76 279.337 61.088 279.993 61.744C280.649 62.384 280.977 63.296 280.977 64.48V67.528C280.977 67.816 280.833 67.96 280.545 67.96H274.113C273.937 67.96 273.849 68.04 273.849 68.2V69.232C273.849 70.4 274.433 70.984 275.601 70.984H280.449C280.737 70.984 280.881 71.128 280.881 71.416V72.616C280.881 72.872 280.737 73 280.449 73ZM274.113 66.328H278.409C278.569 66.328 278.649 66.248 278.649 66.088V64.552C278.649 63.944 278.513 63.504 278.241 63.232C277.969 62.944 277.529 62.8 276.921 62.8H275.601C274.993 62.8 274.553 62.944 274.281 63.232C274.009 63.504 273.873 63.944 273.873 64.552V66.088C273.873 66.248 273.953 66.328 274.113 66.328ZM285.541 73H284.029C283.757 73 283.621 72.864 283.621 72.592V61.168C283.621 60.896 283.757 60.76 284.029 60.76H285.541C285.813 60.76 285.949 60.896 285.949 61.168V62.08H286.045C286.205 61.68 286.509 61.36 286.957 61.12C287.421 60.88 287.933 60.76 288.493 60.76H289.381C289.653 60.76 289.789 60.896 289.789 61.168V62.416C289.789 62.72 289.653 62.848 289.381 62.8H287.941C286.613 62.8 285.949 63.528 285.949 64.984V72.592C285.949 72.864 285.813 73 285.541 73ZM290.892 60.76H292.5C292.756 60.76 292.908 60.896 292.956 61.168L295.452 70.816H295.62L298.068 61.168C298.132 60.896 298.3 60.76 298.572 60.76H300.156C300.444 60.76 300.54 60.896 300.444 61.168L297.204 72.568C297.14 72.856 296.964 73 296.676 73H294.372C294.084 73 293.908 72.856 293.844 72.568L290.604 61.168C290.54 60.896 290.636 60.76 290.892 60.76ZM302.538 58.72V56.536C302.538 56.28 302.666 56.152 302.922 56.152H304.482C304.738 56.152 304.866 56.28 304.866 56.536V58.72C304.866 58.992 304.738 59.128 304.482 59.128H302.922C302.666 59.128 302.538 58.992 302.538 58.72ZM302.538 72.592V61.168C302.538 60.896 302.666 60.76 302.922 60.76H304.458C304.73 60.76 304.866 60.896 304.866 61.168V72.592C304.866 72.752 304.834 72.864 304.77 72.928C304.722 72.976 304.626 73 304.482 73H302.946C302.674 73 302.538 72.864 302.538 72.592ZM315.46 71.368V72.616C315.46 72.872 315.316 73 315.028 73H311.5C310.316 73 309.396 72.672 308.74 72.016C308.1 71.36 307.78 70.448 307.78 69.28V64.48C307.78 63.296 308.1 62.384 308.74 61.744C309.396 61.088 310.316 60.76 311.5 60.76H315.028C315.316 60.76 315.46 60.896 315.46 61.168V62.416C315.46 62.672 315.316 62.8 315.028 62.8H311.836C310.684 62.8 310.108 63.392 310.108 64.576V69.184C310.108 70.368 310.684 70.96 311.836 70.96H315.028C315.316 70.96 315.46 71.096 315.46 71.368ZM326.41 73H321.226C320.042 73 319.122 72.672 318.466 72.016C317.826 71.36 317.506 70.448 317.506 69.28V64.48C317.506 63.296 317.826 62.384 318.466 61.744C319.122 61.088 320.042 60.76 321.226 60.76H323.194C324.378 60.76 325.298 61.088 325.954 61.744C326.61 62.384 326.938 63.296 326.938 64.48V67.528C326.938 67.816 326.794 67.96 326.506 67.96H320.074C319.898 67.96 319.81 68.04 319.81 68.2V69.232C319.81 70.4 320.394 70.984 321.562 70.984H326.41C326.698 70.984 326.842 71.128 326.842 71.416V72.616C326.842 72.872 326.698 73 326.41 73ZM320.074 66.328H324.37C324.53 66.328 324.61 66.248 324.61 66.088V64.552C324.61 63.944 324.474 63.504 324.202 63.232C323.93 62.944 323.49 62.8 322.882 62.8H321.562C320.954 62.8 320.514 62.944 320.242 63.232C319.97 63.504 319.834 63.944 319.834 64.552V66.088C319.834 66.248 319.914 66.328 320.074 66.328ZM333.95 73H329.534C329.262 73 329.126 72.864 329.126 72.592V71.416C329.126 71.16 329.262 71.032 329.534 71.032H333.566C334.606 71.032 335.126 70.672 335.126 69.952V69.664C335.126 69.024 334.75 68.536 333.998 68.2L331.382 66.952C330.566 66.568 329.974 66.144 329.606 65.68C329.238 65.216 329.054 64.608 329.054 63.856C329.054 61.792 330.198 60.76 332.486 60.76H336.47C336.726 60.76 336.854 60.896 336.854 61.168V62.344C336.854 62.616 336.726 62.752 336.47 62.752H332.966C332.486 62.752 332.118 62.84 331.862 63.016C331.606 63.176 331.478 63.392 331.478 63.664V63.928C331.478 64.44 331.886 64.888 332.702 65.272L335.342 66.616C336.174 66.984 336.742 67.424 337.046 67.936C337.366 68.432 337.526 69.08 337.526 69.88C337.526 71.96 336.334 73 333.95 73Z" fill="#2E85B6"/>
<defs>
<clipPath id="clip0_301_61">
<rect width="111" height="91" fill="white"/>
</clipPath>
</defs>
</svg>
