<svg width="480" height="110" viewBox="0 0 480 110" fill="none" xmlns="http://www.w3.org/2000/svg">
<g clip-path="url(#clip0_301_61)">
<path d="M90.8303 52.1539C90.8303 51.9434 90.8303 51.7328 90.8303 51.5347C90.8707 47.5516 90.1198 43.6 88.621 39.9084C87.1222 36.2169 84.9051 32.8585 82.0981 30.0277C79.2911 27.1968 75.9498 24.9496 72.2675 23.4159C68.5851 21.8823 64.6347 21.0926 60.6448 21.0926C56.6548 21.0926 52.7044 21.8823 49.022 23.4159C45.3396 24.9496 41.9984 27.1968 39.1914 30.0277C36.3844 32.8585 34.1673 36.2169 32.6685 39.9084C31.1697 43.6 30.4188 47.5516 30.4592 51.5347C30.4592 51.8907 30.4592 52.2437 30.4809 52.5966C27.5767 51.3616 24.4337 50.787 21.2795 50.9142C18.1254 51.0415 15.0391 51.8675 12.2441 53.3325C9.44921 54.7974 7.01563 56.8646 5.11966 59.3843C3.2237 61.904 1.91281 64.8132 1.28195 67.901C0.651091 70.9889 0.716052 74.1782 1.47213 77.2379C2.22821 80.2976 3.65648 83.1512 5.65348 85.5918C7.65049 88.0325 10.1662 89.9992 13.0185 91.3495C15.8708 92.6998 18.9882 93.3999 22.1449 93.399H83.5952C88.6041 93.4005 93.4531 91.6382 97.2888 88.4223C101.125 85.2064 103.701 80.743 104.566 75.8174C105.43 70.8918 104.526 65.8197 102.014 61.4937C99.5016 57.1676 95.5414 53.8647 90.8303 52.1663V52.1539Z" fill="#8CBED9"/>
<path d="M92.7623 49.8938C92.6138 45.8826 91.7189 41.934 90.1232 38.2497C89.874 37.7442 89.4396 37.3536 88.9099 37.159C88.3803 36.9644 87.7959 36.9805 87.2779 37.2041C86.7598 37.4277 86.3477 37.8416 86.1269 38.3601C85.9061 38.8786 85.8934 39.4621 86.0916 39.9897C87.2819 42.7435 88.0212 45.6705 88.2811 48.6585C84.913 48.0951 81.4624 48.2715 78.1696 49.1753C74.8768 50.0792 71.8209 51.6888 69.2148 53.892C66.6088 56.0953 64.5151 58.8393 63.0798 61.9328C61.6444 65.0263 60.9018 68.395 60.9037 71.8043C60.8925 72.0993 60.9412 72.3935 61.0466 72.6693C61.152 72.9451 61.3121 73.1969 61.5172 73.4095C61.7223 73.6221 61.9683 73.7913 62.2404 73.9068C62.5125 74.0223 62.8052 74.0818 63.1008 74.0818C63.3965 74.0818 63.6892 74.0223 63.9613 73.9068C64.2334 73.7913 64.4794 73.6221 64.6845 73.4095C64.8897 73.1969 65.0497 72.9451 65.1551 72.6693C65.2605 72.3935 65.3092 72.0993 65.298 71.8043C65.298 68.0354 66.4175 64.3511 68.5149 61.2174C70.6123 58.0837 73.5935 55.6412 77.0813 54.1989C80.5692 52.7566 84.4071 52.3792 88.1098 53.1145C91.8125 53.8498 95.2136 55.6647 97.8831 58.3297C100.553 60.9948 102.371 64.3902 103.107 68.0867C103.844 71.7832 103.466 75.6147 102.021 79.0968C100.576 82.5788 98.1296 85.5549 94.9906 87.6488C91.8516 89.7427 88.1612 90.8603 84.3859 90.8603H78.2983C78.0028 90.8492 77.7081 90.8978 77.4318 91.003C77.1556 91.1083 76.9034 91.2681 76.6904 91.4728C76.4775 91.6776 76.3081 91.9232 76.1923 92.1948C76.0766 92.4665 76.017 92.7587 76.017 93.0539C76.017 93.3491 76.0766 93.6412 76.1923 93.9129C76.3081 94.1845 76.4775 94.4301 76.6904 94.6349C76.9034 94.8397 77.1556 94.9995 77.4318 95.1047C77.7081 95.2099 78.0028 95.2585 78.2983 95.2474H84.3859C89.8735 95.245 95.187 93.324 99.4037 89.818C103.62 86.312 106.474 81.4424 107.469 76.0548C108.464 70.6671 107.537 65.1018 104.85 60.3251C102.163 55.5484 97.8851 51.8621 92.7592 49.9062L92.7623 49.8938Z" fill="#2E85B6"/>
<path d="M29.0264 90.848H23.5621C20.7685 90.8463 18.0094 90.2326 15.4794 89.05C12.9494 87.8675 10.7103 86.1449 8.92002 84.004C7.12978 81.8631 5.83206 79.356 5.11848 76.6596C4.40491 73.9632 4.29286 71.1434 4.79025 68.3991C5.28764 65.6547 6.38235 63.0529 7.9971 60.7771C9.61185 58.5013 11.7073 56.6071 14.1355 55.2282C16.5637 53.8493 19.2654 53.0193 22.0501 52.7967C24.8347 52.5742 27.6344 52.9646 30.2514 53.9403C30.7971 54.144 31.4015 54.123 31.9318 53.8821C32.4621 53.6412 32.8749 53.2 33.0797 52.6555C33.2133 52.2946 33.2507 51.9051 33.1882 51.5254C33.208 51.4098 33.2184 51.2928 33.2192 51.1756C33.2192 35.7884 45.593 23.2712 60.8044 23.2712C64.5563 23.2599 68.2699 24.0244 71.7114 25.5163C75.1529 27.0083 78.2477 29.1954 80.8009 31.94C80.9952 32.1624 81.2323 32.3435 81.4982 32.4723C81.7642 32.6011 82.0534 32.6751 82.3486 32.6898C82.6438 32.7045 82.9389 32.6597 83.2163 32.5579C83.4938 32.4562 83.7478 32.2996 83.9633 32.0976C84.1788 31.8957 84.3512 31.6524 84.4704 31.3823C84.5895 31.1123 84.6529 30.821 84.6568 30.526C84.6606 30.2309 84.6048 29.9381 84.4927 29.6651C84.3807 29.3921 84.2146 29.1444 84.0045 28.9369C81.0409 25.752 77.4487 23.2145 73.4542 21.4843C69.4596 19.7541 65.1494 18.8688 60.7951 18.8841C43.8966 18.8841 30.0188 32.197 28.8899 48.9619C25.6663 48.2111 22.32 48.1493 19.0707 48.7803C15.8214 49.4114 12.7425 50.7212 10.0359 52.6238C7.32926 54.5264 5.05617 56.9787 3.36569 59.82C1.67522 62.6613 0.605564 65.8273 0.226901 69.1103C-0.151762 72.3933 0.169121 75.7191 1.1685 78.8696C2.16788 82.0201 3.82318 84.924 6.0258 87.3909C8.22842 89.8579 10.9286 91.832 13.9492 93.1838C16.9698 94.5357 20.2425 95.2347 23.5528 95.235H29.0171C29.3126 95.2461 29.6073 95.1976 29.8835 95.0923C30.1598 94.9871 30.4119 94.8273 30.6249 94.6225C30.8379 94.4177 31.0073 94.1722 31.123 93.9005C31.2387 93.6289 31.2984 93.3367 31.2984 93.0415C31.2984 92.7463 31.2387 92.4541 31.123 92.1825C31.0073 91.9108 30.8379 91.6652 30.6249 91.4605C30.4119 91.2557 30.1598 91.0959 29.8835 90.9907C29.6073 90.8854 29.3126 90.8369 29.0171 90.848H29.0264Z" fill="#2E85B6"/>
<path d="M47.6542 81.7809V107.466C47.6542 108.148 47.4219 108.801 47.0083 109.283C46.5948 109.764 46.0338 110.035 45.4489 110.035C44.8641 110.035 44.3031 109.764 43.8896 109.283C43.476 108.801 43.2437 108.148 43.2437 107.466V81.7809C43.2437 81.0997 43.476 80.4463 43.8896 79.9646C44.3031 79.4829 44.8641 79.2123 45.4489 79.2123C46.0338 79.2123 46.5948 79.4829 47.0083 79.9646C47.4219 80.4463 47.6542 81.0997 47.6542 81.7809Z" fill="#2E85B6"/>
<path d="M55.0051 103.774C55.003 104.118 54.9038 104.456 54.7163 104.758C54.5287 105.06 54.2586 105.317 53.93 105.506L46.7628 109.68C46.2382 109.926 45.6275 109.992 45.0502 109.865C44.473 109.738 43.9708 109.427 43.642 108.994C43.3131 108.56 43.1814 108.035 43.2726 107.521C43.3637 107.008 43.6712 106.542 44.1348 106.216L51.302 102.042C51.8287 101.74 52.4707 101.632 53.0882 101.741C53.7056 101.851 54.2486 102.169 54.5989 102.626C54.8684 102.962 55.0104 103.364 55.0051 103.774V103.774Z" fill="#2E85B6"/>
<path d="M47.8378 107.948C47.8432 108.358 47.7012 108.759 47.4317 109.095C47.0814 109.553 46.5384 109.871 45.9209 109.98C45.3035 110.09 44.6615 109.982 44.1348 109.68L36.9676 105.506C36.504 105.18 36.1965 104.714 36.1053 104.2C36.0142 103.686 36.1459 103.161 36.4747 102.728C36.8035 102.294 37.3057 101.984 37.883 101.857C38.4603 101.73 39.071 101.796 39.5955 102.042L46.7628 106.215C47.0914 106.405 47.3615 106.662 47.549 106.964C47.7366 107.266 47.8358 107.604 47.8378 107.948V107.948Z" fill="#2E85B6"/>
<path d="M60.2781 107.431V81.746C60.2781 81.0648 60.5105 80.4114 60.9241 79.9297C61.3376 79.448 61.8985 79.1774 62.4834 79.1774C63.0683 79.1774 63.6292 79.448 64.0428 79.9297C64.4564 80.4114 64.6887 81.0648 64.6887 81.746V107.431C64.6887 108.113 64.4564 108.766 64.0428 109.248C63.6292 109.729 63.0683 110 62.4834 110C61.8985 110 61.3376 109.729 60.9241 109.248C60.5105 108.766 60.2781 108.113 60.2781 107.431Z" fill="#2E85B6"/>
<path d="M52.9273 85.4383C52.9293 85.0946 53.0285 84.7566 53.2161 84.4544C53.4037 84.1522 53.6737 83.8952 54.0024 83.7061L61.1696 79.5322C61.6942 79.2864 62.3049 79.2206 62.8821 79.3475C63.4594 79.4745 63.9616 79.7851 64.2904 80.2185C64.6192 80.652 64.751 81.1771 64.6598 81.6909C64.5686 82.2048 64.2612 82.6704 63.7976 82.9966L56.6304 87.1705C56.1037 87.4725 55.4617 87.5806 54.8442 87.4711C54.2267 87.3617 53.6837 87.0436 53.3335 86.5861C53.064 86.25 52.9219 85.8486 52.9273 85.4383V85.4383Z" fill="#2E85B6"/>
<path d="M60.0945 81.2647C60.0892 80.8544 60.2312 80.453 60.5007 80.1169C60.851 79.6594 61.394 79.3413 62.0114 79.2319C62.6289 79.1224 63.2709 79.2305 63.7976 79.5325L70.9648 83.7064C71.4284 84.0326 71.7359 84.4982 71.827 85.0121C71.9182 85.5259 71.7865 86.051 71.4577 86.4845C71.1288 86.9179 70.6266 87.2286 70.0494 87.3555C69.4721 87.4824 68.8614 87.4166 68.3368 87.1708L61.1696 82.9969C60.841 82.8078 60.5709 82.5508 60.3833 82.2486C60.1958 81.9464 60.0966 81.6084 60.0945 81.2647V81.2647Z" fill="#2E85B6"/>
</g>
<path d="M131.944 60H126.504C125.608 60 125.16 59.552 125.16 58.656V20.192C125.16 19.296 125.608 18.848 126.504 18.848H142.12C145.448 18.848 148.029 19.7653 149.864 21.6C151.699 23.392 152.616 25.952 152.616 29.28V35.424C152.616 38.752 151.699 41.3333 149.864 43.168C148.029 44.96 145.448 45.856 142.12 45.856H134.056C133.544 45.856 133.288 46.0907 133.288 46.56V58.656C133.288 59.552 132.84 60 131.944 60ZM133.992 38.752H140.776C142.141 38.752 143.101 38.4747 143.656 37.92C144.211 37.3227 144.488 36.3627 144.488 35.04V29.664C144.488 28.2987 144.211 27.3387 143.656 26.784C143.101 26.1867 142.141 25.888 140.776 25.888H133.992C133.523 25.888 133.288 26.1227 133.288 26.592V38.048C133.288 38.5173 133.523 38.752 133.992 38.752ZM182.522 60H168.378C165.007 60 162.404 59.104 160.57 57.312C158.735 55.52 157.818 52.9387 157.818 49.568V37.792C157.818 34.4213 158.735 31.84 160.57 30.048C162.404 28.256 165.007 27.36 168.378 27.36H173.434C176.804 27.36 179.407 28.256 181.242 30.048C183.076 31.84 183.994 34.4213 183.994 37.792V45.92C183.994 46.816 183.546 47.264 182.65 47.264H166.586C166.074 47.264 165.818 47.4987 165.818 47.968V49.376C165.818 50.6987 166.095 51.6587 166.65 52.256C167.247 52.8107 168.228 53.088 169.594 53.088H182.522C183.418 53.088 183.866 53.5573 183.866 54.496V58.72C183.866 59.1893 183.759 59.5307 183.546 59.744C183.375 59.9147 183.034 60 182.522 60ZM166.586 41.824H175.29C175.759 41.824 175.994 41.5893 175.994 41.12V38.048C175.994 36.6827 175.716 35.7227 175.162 35.168C174.607 34.6133 173.647 34.336 172.282 34.336H169.594C168.228 34.336 167.268 34.6133 166.714 35.168C166.159 35.7227 165.882 36.6827 165.882 38.048V41.12C165.882 41.5893 166.116 41.824 166.586 41.824ZM196.867 60H191.427C190.531 60 190.083 59.552 190.083 58.656V28.704C190.083 27.808 190.531 27.36 191.427 27.36H196.867C197.763 27.36 198.211 27.808 198.211 28.704V30.88H198.467C198.936 29.728 199.768 28.8533 200.963 28.256C202.157 27.6587 203.416 27.36 204.739 27.36H207.043C207.896 27.36 208.323 27.808 208.323 28.704V33.12C208.323 33.632 208.216 33.9947 208.003 34.208C207.832 34.3787 207.512 34.4427 207.043 34.4H202.627C199.683 34.4 198.211 36.064 198.211 39.392V58.656C198.211 59.552 197.763 60 196.867 60ZM224.235 27.36H229.355C229.867 27.36 230.208 27.4667 230.379 27.68C230.592 27.8507 230.699 28.1707 230.699 28.64V33.056C230.699 33.952 230.251 34.4 229.355 34.4H224.235C223.766 34.4 223.531 34.6347 223.531 35.104V58.656C223.531 59.552 223.062 60 222.123 60H216.747C215.851 60 215.403 59.552 215.403 58.656V35.104C215.403 34.6347 215.147 34.4 214.635 34.4H211.691C210.795 34.4 210.347 33.952 210.347 33.056V28.64C210.347 28.128 210.432 27.7867 210.603 27.616C210.816 27.4453 211.179 27.36 211.691 27.36H214.635C215.147 27.36 215.403 27.1253 215.403 26.656V25.44C215.403 22.0693 216.278 19.488 218.027 17.696C219.819 15.904 222.4 15.008 225.771 15.008H229.419C229.931 15.008 230.272 15.1147 230.443 15.328C230.614 15.4987 230.699 15.8187 230.699 16.288V20.704C230.699 21.6 230.272 22.048 229.419 22.048H227.051C225.686 22.048 224.747 22.3467 224.235 22.944C223.766 23.4987 223.531 24.4587 223.531 25.824V26.656C223.531 27.1253 223.766 27.36 224.235 27.36ZM259.084 60H244.94C241.569 60 238.967 59.104 237.132 57.312C235.297 55.52 234.38 52.9387 234.38 49.568V37.792C234.38 34.4213 235.297 31.84 237.132 30.048C238.967 28.256 241.569 27.36 244.94 27.36H249.996C253.367 27.36 255.969 28.256 257.804 30.048C259.639 31.84 260.556 34.4213 260.556 37.792V45.92C260.556 46.816 260.108 47.264 259.212 47.264H243.148C242.636 47.264 242.38 47.4987 242.38 47.968V49.376C242.38 50.6987 242.657 51.6587 243.212 52.256C243.809 52.8107 244.791 53.088 246.156 53.088H259.084C259.98 53.088 260.428 53.5573 260.428 54.496V58.72C260.428 59.1893 260.321 59.5307 260.108 59.744C259.937 59.9147 259.596 60 259.084 60ZM243.148 41.824H251.852C252.321 41.824 252.556 41.5893 252.556 41.12V38.048C252.556 36.6827 252.279 35.7227 251.724 35.168C251.169 34.6133 250.209 34.336 248.844 34.336H246.156C244.791 34.336 243.831 34.6133 243.276 35.168C242.721 35.7227 242.444 36.6827 242.444 38.048V41.12C242.444 41.5893 242.679 41.824 243.148 41.824ZM287.445 54.304V58.72C287.445 59.1893 287.338 59.5307 287.125 59.744C286.954 59.9147 286.613 60 286.101 60H276.565C273.194 60 270.592 59.104 268.757 57.312C266.922 55.52 266.005 52.9387 266.005 49.568V37.792C266.005 34.4213 266.922 31.84 268.757 30.048C270.592 28.256 273.194 27.36 276.565 27.36H286.101C286.997 27.36 287.445 27.808 287.445 28.704V33.12C287.445 33.5893 287.338 33.9307 287.125 34.144C286.954 34.3147 286.613 34.4 286.101 34.4H277.845C276.522 34.4 275.562 34.6987 274.965 35.296C274.41 35.8507 274.133 36.8107 274.133 38.176V49.184C274.133 50.5493 274.41 51.5307 274.965 52.128C275.562 52.6827 276.522 52.96 277.845 52.96H286.101C286.997 52.96 287.445 53.408 287.445 54.304ZM293.661 34.4H291.102C290.59 34.4 290.227 34.3147 290.014 34.144C289.843 33.9733 289.758 33.632 289.758 33.12V28.704C289.758 27.808 290.206 27.36 291.102 27.36H293.661C294.131 27.36 294.366 27.1253 294.366 26.656V20.576C294.366 19.68 294.835 19.232 295.774 19.232H301.15C302.046 19.232 302.494 19.68 302.494 20.576V26.656C302.494 27.1253 302.75 27.36 303.262 27.36H308.253C309.15 27.36 309.598 27.808 309.598 28.704V33.12C309.598 33.5893 309.491 33.9307 309.278 34.144C309.107 34.3147 308.766 34.4 308.253 34.4H303.262C302.75 34.4 302.494 34.6347 302.494 35.104V49.248C302.494 50.5707 302.792 51.5307 303.39 52.128C303.987 52.6827 304.968 52.96 306.333 52.96H308.894C309.79 52.96 310.238 53.408 310.238 54.304V58.72C310.238 59.1893 310.131 59.5307 309.918 59.744C309.747 59.9147 309.406 60 308.894 60H304.99C301.619 60 298.995 59.104 297.118 57.312C295.283 55.52 294.366 52.96 294.366 49.632V35.104C294.366 34.6347 294.131 34.4 293.661 34.4ZM347.119 60H340.143C336.772 60 334.169 59.104 332.335 57.312C330.5 55.52 329.583 52.9387 329.583 49.568V29.28C329.583 25.9093 330.5 23.328 332.335 21.536C334.169 19.744 336.772 18.848 340.143 18.848H347.119C350.447 18.848 353.028 19.7653 354.863 21.6C356.74 23.392 357.679 25.952 357.679 29.28V32.288C357.679 33.2267 357.209 33.696 356.271 33.696H350.895C349.999 33.696 349.551 33.2267 349.551 32.288V29.664C349.551 28.2987 349.252 27.3387 348.655 26.784C348.1 26.1867 347.14 25.888 345.775 25.888H341.423C340.1 25.888 339.14 26.1867 338.543 26.784C337.988 27.3387 337.711 28.2987 337.711 29.664V49.184C337.711 50.5493 337.988 51.5307 338.543 52.128C339.14 52.6827 340.1 52.96 341.423 52.96H345.775C347.14 52.96 348.1 52.6827 348.655 52.128C349.252 51.5307 349.551 50.5493 349.551 49.184V46.56C349.551 45.6213 349.999 45.152 350.895 45.152H356.271C357.209 45.152 357.679 45.6213 357.679 46.56V49.568C357.679 52.896 356.74 55.4773 354.863 57.312C353.028 59.104 350.447 60 347.119 60ZM371.124 60H365.684C364.788 60 364.34 59.552 364.34 58.656V16.352C364.34 15.456 364.788 15.008 365.684 15.008H371.124C372.02 15.008 372.468 15.456 372.468 16.352V58.656C372.468 59.552 372.02 60 371.124 60ZM395.449 60H389.753C386.382 60 383.779 59.104 381.945 57.312C380.11 55.52 379.193 52.9387 379.193 49.568V37.792C379.193 34.4213 380.11 31.84 381.945 30.048C383.779 28.256 386.382 27.36 389.753 27.36H395.449C398.777 27.36 401.358 28.2773 403.193 30.112C405.07 31.904 406.009 34.464 406.009 37.792V49.568C406.009 52.896 405.07 55.4773 403.193 57.312C401.358 59.104 398.777 60 395.449 60ZM390.969 53.024H394.233C395.598 53.024 396.558 52.7467 397.113 52.192C397.71 51.6373 398.009 50.6773 398.009 49.312V38.048C398.009 36.6827 397.71 35.7227 397.113 35.168C396.558 34.6133 395.598 34.336 394.233 34.336H390.969C389.603 34.336 388.643 34.6133 388.089 35.168C387.534 35.7227 387.257 36.6827 387.257 38.048V49.312C387.257 50.6773 387.534 51.6373 388.089 52.192C388.643 52.7467 389.603 53.024 390.969 53.024ZM424.171 60H422.059C418.774 60 416.278 59.104 414.571 57.312C412.907 55.52 412.075 52.9387 412.075 49.568V28.704C412.075 27.808 412.523 27.36 413.419 27.36H418.859C419.755 27.36 420.203 27.808 420.203 28.704V49.184C420.203 50.5493 420.48 51.5307 421.035 52.128C421.632 52.6827 422.592 52.96 423.915 52.96H426.283C429.227 52.96 430.699 51.3387 430.699 48.096V28.704C430.699 27.808 431.147 27.36 432.043 27.36H437.419C438.358 27.36 438.827 27.808 438.827 28.704V58.656C438.827 59.552 438.358 60 437.419 60H432.043C431.147 60 430.699 59.552 430.699 58.656V56.544H430.443C429.974 57.696 429.142 58.5707 427.947 59.168C426.752 59.7227 425.494 60 424.171 60ZM457.863 60H455.239C451.954 60 449.458 59.104 447.751 57.312C446.087 55.52 445.255 52.9387 445.255 49.568V37.792C445.255 34.4213 446.087 31.84 447.751 30.048C449.458 28.256 451.954 27.36 455.239 27.36H457.863C459.186 27.36 460.444 27.6587 461.639 28.256C462.834 28.8107 463.666 29.664 464.135 30.816H464.391V16.352C464.391 15.456 464.839 15.008 465.735 15.008H471.175C472.071 15.008 472.519 15.456 472.519 16.352V58.656C472.519 59.552 472.071 60 471.175 60H465.735C464.839 60 464.391 59.552 464.391 58.656V56.544H464.135C463.666 57.696 462.834 58.5707 461.639 59.168C460.444 59.7227 459.186 60 457.863 60ZM464.391 48.096V39.264C464.391 36.0213 462.919 34.4 459.975 34.4H457.095C455.73 34.4 454.77 34.6987 454.215 35.296C453.66 35.8507 453.383 36.8107 453.383 38.176V49.184C453.383 50.5493 453.66 51.5307 454.215 52.128C454.77 52.6827 455.73 52.96 457.095 52.96H459.975C462.919 52.96 464.391 51.3387 464.391 48.096Z" fill="#333333"/>
<path d="M128.256 95H126.52C126.203 95 126.044 94.8413 126.044 94.524V77.472C126.044 77.1547 126.203 76.996 126.52 76.996H128.088C128.387 76.996 128.592 77.0987 128.704 77.304L135.48 89.484H135.592V77.472C135.592 77.1547 135.751 76.996 136.068 76.996H137.804C138.121 76.996 138.28 77.1547 138.28 77.472V94.524C138.28 94.8413 138.121 95 137.804 95H136.292C135.993 95 135.751 94.8507 135.564 94.552L128.844 82.512H128.732V94.524C128.732 94.8413 128.573 95 128.256 95ZM152.196 95H146.148C144.767 95 143.694 94.6173 142.928 93.852C142.182 93.0867 141.808 92.0227 141.808 90.66V85.06C141.808 83.6787 142.182 82.6147 142.928 81.868C143.694 81.1027 144.767 80.72 146.148 80.72H148.444C149.826 80.72 150.899 81.1027 151.664 81.868C152.43 82.6147 152.812 83.6787 152.812 85.06V88.616C152.812 88.952 152.644 89.12 152.308 89.12H144.804C144.599 89.12 144.496 89.2133 144.496 89.4V90.604C144.496 91.9667 145.178 92.648 146.54 92.648H152.196C152.532 92.648 152.7 92.816 152.7 93.152V94.552C152.7 94.8507 152.532 95 152.196 95ZM144.804 87.216H149.816C150.003 87.216 150.096 87.1227 150.096 86.936V85.144C150.096 84.4347 149.938 83.9213 149.62 83.604C149.303 83.268 148.79 83.1 148.08 83.1H146.54C145.831 83.1 145.318 83.268 145 83.604C144.683 83.9213 144.524 84.4347 144.524 85.144V86.936C144.524 87.1227 144.618 87.216 144.804 87.216ZM156.317 83.1H154.973C154.786 83.1 154.655 83.072 154.581 83.016C154.525 82.9413 154.497 82.82 154.497 82.652V81.196C154.497 80.8787 154.655 80.72 154.973 80.72H156.317C156.503 80.72 156.597 80.6267 156.597 80.44V77.92C156.597 77.6027 156.765 77.444 157.101 77.444H158.865C159.182 77.444 159.341 77.6027 159.341 77.92V80.44C159.341 80.6267 159.443 80.72 159.649 80.72H162.253C162.589 80.72 162.757 80.8787 162.757 81.196V82.652C162.757 82.9507 162.589 83.1 162.253 83.1H159.649C159.443 83.1 159.341 83.1933 159.341 83.38V90.576C159.341 91.9387 160.041 92.62 161.441 92.62H162.533C162.869 92.62 163.037 92.7787 163.037 93.096V94.552C163.037 94.8507 162.869 95 162.533 95H161.021C159.639 95 158.557 94.6267 157.773 93.88C156.989 93.1333 156.597 92.0787 156.597 90.716V83.38C156.597 83.1933 156.503 83.1 156.317 83.1ZM170.725 95H168.317C168.037 95 167.851 94.8413 167.757 94.524L164.537 81.196C164.463 80.8787 164.575 80.72 164.873 80.72H166.889C167.225 80.72 167.412 80.8787 167.449 81.196L169.493 91.78H169.689L172.153 81.196C172.209 80.8787 172.387 80.72 172.685 80.72H174.533C174.851 80.72 175.047 80.8787 175.121 81.196L177.529 91.78H177.725L179.769 81.196C179.825 80.8787 180.012 80.72 180.329 80.72H182.345C182.663 80.72 182.775 80.8787 182.681 81.196L179.461 94.524C179.405 94.8413 179.219 95 178.901 95H176.493C176.195 95 176.008 94.8413 175.933 94.524L173.693 84.136H173.497L171.285 94.524C171.229 94.8413 171.043 95 170.725 95ZM191.597 95H189.133C187.751 95 186.678 94.6173 185.913 93.852C185.166 93.0867 184.793 92.0227 184.793 90.66V85.06C184.793 83.6787 185.166 82.6147 185.913 81.868C186.678 81.1027 187.751 80.72 189.133 80.72H191.597C192.959 80.72 194.023 81.1027 194.789 81.868C195.573 82.6147 195.965 83.6787 195.965 85.06V90.66C195.965 92.0227 195.573 93.0867 194.789 93.852C194.023 94.6173 192.959 95 191.597 95ZM189.525 92.62H191.233C192.577 92.62 193.249 91.9387 193.249 90.576V85.144C193.249 83.7813 192.577 83.1 191.233 83.1H189.525C188.815 83.1 188.302 83.268 187.985 83.604C187.667 83.9213 187.509 84.4347 187.509 85.144V90.576C187.509 91.2853 187.667 91.808 187.985 92.144C188.302 92.4613 188.815 92.62 189.525 92.62ZM201.422 95H199.658C199.341 95 199.182 94.8413 199.182 94.524V81.196C199.182 80.8787 199.341 80.72 199.658 80.72H201.422C201.739 80.72 201.898 80.8787 201.898 81.196V82.26H202.01C202.197 81.7933 202.551 81.42 203.074 81.14C203.615 80.86 204.213 80.72 204.866 80.72H205.902C206.219 80.72 206.378 80.8787 206.378 81.196V82.652C206.378 83.0067 206.219 83.156 205.902 83.1H204.222C202.673 83.1 201.898 83.9493 201.898 85.648V94.524C201.898 94.8413 201.739 95 201.422 95ZM216.681 80.72H218.697C218.865 80.72 218.977 80.776 219.033 80.888C219.108 80.9813 219.089 81.112 218.977 81.28L215.029 87.552V87.664L219.285 94.44C219.378 94.5893 219.388 94.72 219.313 94.832C219.257 94.944 219.126 95 218.921 95H217.101C216.672 95 216.354 94.8413 216.149 94.524L212.201 88.056C212.07 87.8133 212.07 87.5613 212.201 87.3L215.869 81.168C216.037 80.8693 216.308 80.72 216.681 80.72ZM210.801 95H209.037C208.72 95 208.561 94.8413 208.561 94.524V75.792C208.561 75.4747 208.72 75.316 209.037 75.316H210.801C211.118 75.316 211.277 75.4747 211.277 75.792V94.524C211.277 94.8413 211.118 95 210.801 95ZM235.59 95H232.342C230.961 95 229.888 94.6173 229.122 93.852C228.376 93.0867 228.002 92.0227 228.002 90.66V81.336C228.002 79.9547 228.376 78.8907 229.122 78.144C229.888 77.3787 230.961 76.996 232.342 76.996H235.59C236.953 76.996 238.017 77.3787 238.782 78.144C239.548 78.8907 239.93 79.9547 239.93 81.336V82.68C239.93 83.016 239.762 83.184 239.426 83.184H237.662C237.345 83.184 237.186 83.016 237.186 82.68V81.448C237.186 80.0667 236.514 79.376 235.17 79.376H232.734C231.39 79.376 230.718 80.0667 230.718 81.448V90.548C230.718 91.9293 231.39 92.62 232.734 92.62H235.17C236.514 92.62 237.186 91.9293 237.186 90.548V89.316C237.186 88.98 237.345 88.812 237.662 88.812H239.426C239.762 88.812 239.93 88.98 239.93 89.316V90.66C239.93 92.0227 239.548 93.0867 238.782 93.852C238.017 94.6173 236.953 95 235.59 95ZM249.647 95H247.183C245.802 95 244.729 94.6173 243.963 93.852C243.217 93.0867 242.843 92.0227 242.843 90.66V85.06C242.843 83.6787 243.217 82.6147 243.963 81.868C244.729 81.1027 245.802 80.72 247.183 80.72H249.647C251.01 80.72 252.074 81.1027 252.839 81.868C253.623 82.6147 254.015 83.6787 254.015 85.06V90.66C254.015 92.0227 253.623 93.0867 252.839 93.852C252.074 94.6173 251.01 95 249.647 95ZM247.575 92.62H249.283C250.627 92.62 251.299 91.9387 251.299 90.576V85.144C251.299 83.7813 250.627 83.1 249.283 83.1H247.575C246.866 83.1 246.353 83.268 246.035 83.604C245.718 83.9213 245.559 84.4347 245.559 85.144V90.576C245.559 91.2853 245.718 91.808 246.035 92.144C246.353 92.4613 246.866 92.62 247.575 92.62ZM259.473 95H257.709C257.391 95 257.233 94.8413 257.233 94.524V81.196C257.233 80.8787 257.391 80.72 257.709 80.72H259.473C259.79 80.72 259.949 80.8787 259.949 81.196V82.204H260.061C260.602 81.2147 261.591 80.72 263.029 80.72H263.953C265.577 80.72 266.734 81.336 267.425 82.568C267.723 81.9707 268.181 81.5133 268.797 81.196C269.413 80.8787 270.075 80.72 270.785 80.72H271.681C273.043 80.72 274.079 81.1027 274.789 81.868C275.517 82.6147 275.881 83.6787 275.881 85.06V94.524C275.881 94.8413 275.722 95 275.405 95H273.613C273.295 95 273.137 94.8413 273.137 94.524V85.172C273.137 83.7907 272.465 83.1 271.121 83.1H270.309C268.759 83.1 267.985 83.912 267.985 85.536V94.524C267.985 94.8413 267.817 95 267.481 95H265.717C265.399 95 265.241 94.8413 265.241 94.524V85.172C265.241 83.7907 264.569 83.1 263.225 83.1H262.245C260.714 83.1 259.949 83.8933 259.949 85.48V94.524C259.949 94.8413 259.79 95 259.473 95ZM281.512 98.948H279.748C279.43 98.948 279.272 98.7893 279.272 98.472V81.196C279.272 80.8787 279.43 80.72 279.748 80.72H281.512C281.829 80.72 281.988 80.8787 281.988 81.196V82.204H282.1C282.548 81.2147 283.49 80.72 284.928 80.72H286.356C287.7 80.72 288.726 81.0933 289.436 81.84C290.164 82.5867 290.528 83.66 290.528 85.06V90.66C290.528 92.0413 290.164 93.1147 289.436 93.88C288.726 94.6267 287.7 95 286.356 95H284.928C283.49 95 282.548 94.5053 282.1 93.516H281.988V98.472C281.988 98.7893 281.829 98.948 281.512 98.948ZM284.284 92.62H285.768C287.112 92.62 287.784 91.9293 287.784 90.548V85.172C287.784 83.7907 287.112 83.1 285.768 83.1H284.284C282.753 83.1 281.988 83.8933 281.988 85.48V90.24C281.988 91.8267 282.753 92.62 284.284 92.62ZM298.916 95H297.824C296.443 95 295.369 94.6173 294.604 93.852C293.857 93.0867 293.484 92.0227 293.484 90.66V85.06C293.484 83.6787 293.857 82.6147 294.604 81.868C295.369 81.1027 296.443 80.72 297.824 80.72H304.096C304.432 80.72 304.6 80.8787 304.6 81.196V94.524C304.6 94.8413 304.432 95 304.096 95H302.332C302.015 95 301.856 94.8413 301.856 94.524V93.516H301.744C301.296 94.5053 300.353 95 298.916 95ZM301.856 90.24V83.38C301.856 83.1933 301.753 83.1 301.548 83.1H298.216C296.872 83.1 296.2 83.7907 296.2 85.172V90.548C296.2 91.9293 296.872 92.62 298.216 92.62H299.56C301.091 92.62 301.856 91.8267 301.856 90.24ZM310.332 95H308.568C308.251 95 308.092 94.8413 308.092 94.524V81.196C308.092 80.8787 308.251 80.72 308.568 80.72H310.332C310.649 80.72 310.808 80.8787 310.808 81.196V82.204H310.92C311.368 81.2147 312.311 80.72 313.748 80.72H314.98C316.343 80.72 317.388 81.0933 318.116 81.84C318.844 82.5867 319.208 83.66 319.208 85.06V94.524C319.208 94.8413 319.04 95 318.704 95H316.94C316.623 95 316.464 94.8413 316.464 94.524V85.172C316.464 83.7907 315.783 83.1 314.42 83.1H313.104C311.573 83.1 310.808 83.8933 310.808 85.48V94.524C310.808 94.8413 310.649 95 310.332 95ZM324.237 99.536H322.753C322.436 99.536 322.277 99.3773 322.277 99.06V97.632C322.277 97.296 322.436 97.128 322.753 97.128H323.397C324.536 97.128 325.32 96.904 325.749 96.456C326.197 96.008 326.57 95.2707 326.869 94.244H325.749C325.469 94.244 325.273 94.0853 325.161 93.768L321.437 81.196C321.362 80.8787 321.484 80.72 321.801 80.72H323.677C323.976 80.72 324.162 80.8787 324.237 81.196L327.289 92.172H327.401L330.453 81.196C330.509 80.8787 330.696 80.72 331.013 80.72H332.805C333.16 80.72 333.309 80.888 333.253 81.224L329.417 94.692C328.988 96.26 328.381 97.4547 327.597 98.276C326.813 99.116 325.693 99.536 324.237 99.536Z" fill="#2E85B6"/>
<defs>
<clipPath id="clip0_301_61">
<rect width="111" height="91" fill="white" transform="translate(0 19)"/>
</clipPath>
</defs>
</svg>
