<svg width="480" height="110" viewBox="0 0 480 110" fill="none" xmlns="http://www.w3.org/2000/svg">
<g clip-path="url(#clip0_339_2)">
<path d="M90.8303 52.1539C90.8303 51.9434 90.8303 51.7328 90.8303 51.5347C90.8707 47.5516 90.1198 43.6 88.621 39.9084C87.1222 36.2169 84.9051 32.8585 82.0981 30.0277C79.2911 27.1968 75.9498 24.9496 72.2675 23.4159C68.5851 21.8823 64.6347 21.0926 60.6448 21.0926C56.6548 21.0926 52.7044 21.8823 49.022 23.4159C45.3396 24.9496 41.9984 27.1968 39.1914 30.0277C36.3844 32.8585 34.1673 36.2169 32.6685 39.9084C31.1697 43.6 30.4188 47.5516 30.4592 51.5347C30.4592 51.8907 30.4592 52.2437 30.4809 52.5966C27.5767 51.3616 24.4337 50.787 21.2795 50.9142C18.1254 51.0415 15.0391 51.8675 12.2441 53.3325C9.44921 54.7974 7.01563 56.8646 5.11966 59.3843C3.2237 61.904 1.91281 64.8132 1.28195 67.901C0.651091 70.9889 0.716052 74.1782 1.47213 77.2379C2.22821 80.2976 3.65648 83.1512 5.65348 85.5918C7.65049 88.0325 10.1662 89.9992 13.0185 91.3495C15.8708 92.6998 18.9882 93.3999 22.1449 93.399H83.5952C88.6041 93.4005 93.4531 91.6382 97.2888 88.4223C101.125 85.2064 103.701 80.743 104.566 75.8174C105.43 70.8918 104.526 65.8197 102.014 61.4937C99.5016 57.1676 95.5414 53.8647 90.8303 52.1663V52.1539Z" fill="#8CBED9"/>
<path d="M92.7623 49.8938C92.6138 45.8826 91.7189 41.934 90.1232 38.2497C89.874 37.7442 89.4396 37.3536 88.9099 37.159C88.3803 36.9644 87.7959 36.9805 87.2779 37.2041C86.7598 37.4277 86.3477 37.8416 86.1269 38.3601C85.9061 38.8786 85.8934 39.4621 86.0916 39.9897C87.2819 42.7435 88.0212 45.6705 88.2811 48.6585C84.913 48.0951 81.4624 48.2715 78.1696 49.1753C74.8768 50.0792 71.8209 51.6888 69.2148 53.892C66.6088 56.0953 64.5151 58.8393 63.0798 61.9328C61.6444 65.0263 60.9018 68.395 60.9037 71.8043C60.8925 72.0993 60.9412 72.3935 61.0466 72.6693C61.152 72.9451 61.3121 73.1969 61.5172 73.4095C61.7223 73.6221 61.9683 73.7913 62.2404 73.9068C62.5125 74.0223 62.8052 74.0818 63.1008 74.0818C63.3965 74.0818 63.6892 74.0223 63.9613 73.9068C64.2334 73.7913 64.4794 73.6221 64.6845 73.4095C64.8897 73.1969 65.0497 72.9451 65.1551 72.6693C65.2605 72.3935 65.3092 72.0993 65.298 71.8043C65.298 68.0354 66.4175 64.3511 68.5149 61.2174C70.6123 58.0837 73.5935 55.6412 77.0813 54.1989C80.5692 52.7566 84.4071 52.3792 88.1098 53.1145C91.8125 53.8498 95.2136 55.6647 97.8831 58.3297C100.553 60.9948 102.371 64.3902 103.107 68.0867C103.844 71.7832 103.466 75.6147 102.021 79.0968C100.576 82.5788 98.1296 85.5549 94.9906 87.6488C91.8516 89.7427 88.1612 90.8603 84.3859 90.8603H78.2983C78.0028 90.8492 77.7081 90.8978 77.4318 91.003C77.1556 91.1083 76.9034 91.2681 76.6904 91.4728C76.4775 91.6776 76.3081 91.9232 76.1923 92.1948C76.0766 92.4665 76.017 92.7587 76.017 93.0539C76.017 93.3491 76.0766 93.6412 76.1923 93.9129C76.3081 94.1845 76.4775 94.4301 76.6904 94.6349C76.9034 94.8397 77.1556 94.9995 77.4318 95.1047C77.7081 95.2099 78.0028 95.2585 78.2983 95.2474H84.3859C89.8735 95.245 95.187 93.324 99.4037 89.818C103.62 86.312 106.474 81.4424 107.469 76.0548C108.464 70.6671 107.537 65.1018 104.85 60.3251C102.163 55.5484 97.8851 51.8621 92.7592 49.9062L92.7623 49.8938Z" fill="#2E85B6"/>
<path d="M29.0264 90.848H23.5621C20.7685 90.8463 18.0094 90.2326 15.4794 89.05C12.9494 87.8675 10.7103 86.1449 8.92002 84.004C7.12978 81.8631 5.83206 79.356 5.11848 76.6596C4.40491 73.9632 4.29286 71.1434 4.79025 68.3991C5.28764 65.6547 6.38235 63.0529 7.9971 60.7771C9.61185 58.5013 11.7073 56.6071 14.1355 55.2282C16.5637 53.8493 19.2654 53.0193 22.0501 52.7967C24.8347 52.5742 27.6344 52.9646 30.2514 53.9403C30.7971 54.144 31.4015 54.123 31.9318 53.8821C32.4621 53.6412 32.8749 53.2 33.0797 52.6555C33.2133 52.2946 33.2507 51.9051 33.1882 51.5254C33.208 51.4098 33.2184 51.2928 33.2192 51.1756C33.2192 35.7884 45.593 23.2712 60.8044 23.2712C64.5563 23.2599 68.2699 24.0244 71.7114 25.5163C75.1529 27.0083 78.2477 29.1954 80.8009 31.94C80.9952 32.1624 81.2323 32.3435 81.4982 32.4723C81.7642 32.6011 82.0534 32.6751 82.3486 32.6898C82.6438 32.7045 82.9389 32.6597 83.2163 32.5579C83.4938 32.4562 83.7478 32.2996 83.9633 32.0976C84.1788 31.8957 84.3512 31.6524 84.4704 31.3823C84.5895 31.1123 84.6529 30.821 84.6568 30.526C84.6606 30.2309 84.6048 29.9381 84.4927 29.6651C84.3807 29.3921 84.2146 29.1444 84.0045 28.9369C81.0409 25.752 77.4487 23.2145 73.4542 21.4843C69.4596 19.7541 65.1494 18.8688 60.7951 18.8841C43.8966 18.8841 30.0188 32.197 28.8899 48.9619C25.6663 48.2111 22.32 48.1493 19.0707 48.7803C15.8214 49.4114 12.7425 50.7212 10.0359 52.6238C7.32926 54.5264 5.05617 56.9787 3.36569 59.82C1.67522 62.6613 0.605564 65.8273 0.226901 69.1103C-0.151762 72.3933 0.169121 75.7191 1.1685 78.8696C2.16788 82.0201 3.82318 84.924 6.0258 87.3909C8.22842 89.8579 10.9286 91.832 13.9492 93.1838C16.9698 94.5357 20.2425 95.2347 23.5528 95.235H29.0171C29.3126 95.2461 29.6073 95.1976 29.8835 95.0923C30.1598 94.9871 30.4119 94.8273 30.6249 94.6225C30.8379 94.4177 31.0073 94.1722 31.123 93.9005C31.2387 93.6289 31.2984 93.3367 31.2984 93.0415C31.2984 92.7463 31.2387 92.4541 31.123 92.1825C31.0073 91.9108 30.8379 91.6652 30.6249 91.4605C30.4119 91.2557 30.1598 91.0959 29.8835 90.9907C29.6073 90.8854 29.3126 90.8369 29.0171 90.848H29.0264Z" fill="#2E85B6"/>
<path d="M47.6542 81.7809V107.466C47.6542 108.148 47.4219 108.801 47.0083 109.283C46.5948 109.764 46.0338 110.035 45.4489 110.035C44.8641 110.035 44.3031 109.764 43.8896 109.283C43.476 108.801 43.2437 108.148 43.2437 107.466V81.7809C43.2437 81.0997 43.476 80.4463 43.8896 79.9646C44.3031 79.4829 44.8641 79.2123 45.4489 79.2123C46.0338 79.2123 46.5948 79.4829 47.0083 79.9646C47.4219 80.4463 47.6542 81.0997 47.6542 81.7809Z" fill="#2E85B6"/>
<path d="M55.0051 103.774C55.003 104.118 54.9038 104.456 54.7163 104.758C54.5287 105.06 54.2586 105.317 53.93 105.506L46.7628 109.68C46.2382 109.926 45.6275 109.992 45.0502 109.865C44.473 109.738 43.9708 109.427 43.642 108.994C43.3131 108.56 43.1814 108.035 43.2726 107.521C43.3637 107.008 43.6712 106.542 44.1348 106.216L51.302 102.042C51.8287 101.74 52.4707 101.632 53.0882 101.741C53.7056 101.851 54.2486 102.169 54.5989 102.626C54.8684 102.962 55.0104 103.364 55.0051 103.774V103.774Z" fill="#2E85B6"/>
<path d="M47.8378 107.948C47.8432 108.358 47.7012 108.759 47.4317 109.095C47.0814 109.553 46.5384 109.871 45.9209 109.98C45.3035 110.09 44.6615 109.982 44.1348 109.68L36.9676 105.506C36.504 105.18 36.1965 104.714 36.1053 104.2C36.0142 103.686 36.1459 103.161 36.4747 102.728C36.8035 102.294 37.3057 101.984 37.883 101.857C38.4603 101.73 39.071 101.796 39.5955 102.042L46.7628 106.215C47.0914 106.405 47.3615 106.662 47.549 106.964C47.7366 107.266 47.8358 107.604 47.8378 107.948V107.948Z" fill="#2E85B6"/>
<path d="M60.2781 107.431V81.746C60.2781 81.0648 60.5105 80.4114 60.9241 79.9297C61.3376 79.448 61.8985 79.1774 62.4834 79.1774C63.0683 79.1774 63.6292 79.448 64.0428 79.9297C64.4564 80.4114 64.6887 81.0648 64.6887 81.746V107.431C64.6887 108.113 64.4564 108.766 64.0428 109.248C63.6292 109.729 63.0683 110 62.4834 110C61.8985 110 61.3376 109.729 60.9241 109.248C60.5105 108.766 60.2781 108.113 60.2781 107.431Z" fill="#2E85B6"/>
<path d="M52.9273 85.4383C52.9293 85.0946 53.0285 84.7566 53.2161 84.4544C53.4037 84.1522 53.6737 83.8952 54.0024 83.7061L61.1696 79.5322C61.6942 79.2864 62.3049 79.2206 62.8821 79.3475C63.4594 79.4745 63.9616 79.7851 64.2904 80.2185C64.6192 80.652 64.751 81.1771 64.6598 81.6909C64.5686 82.2048 64.2612 82.6704 63.7976 82.9966L56.6304 87.1705C56.1037 87.4725 55.4617 87.5806 54.8442 87.4711C54.2267 87.3617 53.6837 87.0436 53.3335 86.5861C53.064 86.25 52.9219 85.8486 52.9273 85.4383V85.4383Z" fill="#2E85B6"/>
<path d="M60.0945 81.2647C60.0892 80.8544 60.2312 80.453 60.5007 80.1169C60.851 79.6594 61.394 79.3413 62.0114 79.2319C62.6289 79.1224 63.2709 79.2305 63.7976 79.5325L70.9648 83.7064C71.4284 84.0326 71.7359 84.4982 71.827 85.0121C71.9182 85.5259 71.7865 86.051 71.4577 86.4845C71.1288 86.9179 70.6266 87.2286 70.0494 87.3555C69.4721 87.4824 68.8614 87.4166 68.3368 87.1708L61.1696 82.9969C60.841 82.8078 60.5709 82.5508 60.3833 82.2486C60.1958 81.9464 60.0966 81.6084 60.0945 81.2647V81.2647Z" fill="#2E85B6"/>
</g>
<path d="M131.944 60H126.504C125.608 60 125.16 59.552 125.16 58.656V20.192C125.16 19.296 125.608 18.848 126.504 18.848H142.12C145.448 18.848 148.029 19.7653 149.864 21.6C151.699 23.392 152.616 25.952 152.616 29.28V35.424C152.616 38.752 151.699 41.3333 149.864 43.168C148.029 44.96 145.448 45.856 142.12 45.856H134.056C133.544 45.856 133.288 46.0907 133.288 46.56V58.656C133.288 59.552 132.84 60 131.944 60ZM133.992 38.752H140.776C142.141 38.752 143.101 38.4747 143.656 37.92C144.211 37.3227 144.488 36.3627 144.488 35.04V29.664C144.488 28.2987 144.211 27.3387 143.656 26.784C143.101 26.1867 142.141 25.888 140.776 25.888H133.992C133.523 25.888 133.288 26.1227 133.288 26.592V38.048C133.288 38.5173 133.523 38.752 133.992 38.752ZM182.522 60H168.378C165.007 60 162.404 59.104 160.57 57.312C158.735 55.52 157.818 52.9387 157.818 49.568V37.792C157.818 34.4213 158.735 31.84 160.57 30.048C162.404 28.256 165.007 27.36 168.378 27.36H173.434C176.804 27.36 179.407 28.256 181.242 30.048C183.076 31.84 183.994 34.4213 183.994 37.792V45.92C183.994 46.816 183.546 47.264 182.65 47.264H166.586C166.074 47.264 165.818 47.4987 165.818 47.968V49.376C165.818 50.6987 166.095 51.6587 166.65 52.256C167.247 52.8107 168.228 53.088 169.594 53.088H182.522C183.418 53.088 183.866 53.5573 183.866 54.496V58.72C183.866 59.1893 183.759 59.5307 183.546 59.744C183.375 59.9147 183.034 60 182.522 60ZM166.586 41.824H175.29C175.759 41.824 175.994 41.5893 175.994 41.12V38.048C175.994 36.6827 175.716 35.7227 175.162 35.168C174.607 34.6133 173.647 34.336 172.282 34.336H169.594C168.228 34.336 167.268 34.6133 166.714 35.168C166.159 35.7227 165.882 36.6827 165.882 38.048V41.12C165.882 41.5893 166.116 41.824 166.586 41.824ZM196.867 60H191.427C190.531 60 190.083 59.552 190.083 58.656V28.704C190.083 27.808 190.531 27.36 191.427 27.36H196.867C197.763 27.36 198.211 27.808 198.211 28.704V30.88H198.467C198.936 29.728 199.768 28.8533 200.963 28.256C202.157 27.6587 203.416 27.36 204.739 27.36H207.043C207.896 27.36 208.323 27.808 208.323 28.704V33.12C208.323 33.632 208.216 33.9947 208.003 34.208C207.832 34.3787 207.512 34.4427 207.043 34.4H202.627C199.683 34.4 198.211 36.064 198.211 39.392V58.656C198.211 59.552 197.763 60 196.867 60ZM224.235 27.36H229.355C229.867 27.36 230.208 27.4667 230.379 27.68C230.592 27.8507 230.699 28.1707 230.699 28.64V33.056C230.699 33.952 230.251 34.4 229.355 34.4H224.235C223.766 34.4 223.531 34.6347 223.531 35.104V58.656C223.531 59.552 223.062 60 222.123 60H216.747C215.851 60 215.403 59.552 215.403 58.656V35.104C215.403 34.6347 215.147 34.4 214.635 34.4H211.691C210.795 34.4 210.347 33.952 210.347 33.056V28.64C210.347 28.128 210.432 27.7867 210.603 27.616C210.816 27.4453 211.179 27.36 211.691 27.36H214.635C215.147 27.36 215.403 27.1253 215.403 26.656V25.44C215.403 22.0693 216.278 19.488 218.027 17.696C219.819 15.904 222.4 15.008 225.771 15.008H229.419C229.931 15.008 230.272 15.1147 230.443 15.328C230.614 15.4987 230.699 15.8187 230.699 16.288V20.704C230.699 21.6 230.272 22.048 229.419 22.048H227.051C225.686 22.048 224.747 22.3467 224.235 22.944C223.766 23.4987 223.531 24.4587 223.531 25.824V26.656C223.531 27.1253 223.766 27.36 224.235 27.36ZM259.084 60H244.94C241.569 60 238.967 59.104 237.132 57.312C235.297 55.52 234.38 52.9387 234.38 49.568V37.792C234.38 34.4213 235.297 31.84 237.132 30.048C238.967 28.256 241.569 27.36 244.94 27.36H249.996C253.367 27.36 255.969 28.256 257.804 30.048C259.639 31.84 260.556 34.4213 260.556 37.792V45.92C260.556 46.816 260.108 47.264 259.212 47.264H243.148C242.636 47.264 242.38 47.4987 242.38 47.968V49.376C242.38 50.6987 242.657 51.6587 243.212 52.256C243.809 52.8107 244.791 53.088 246.156 53.088H259.084C259.98 53.088 260.428 53.5573 260.428 54.496V58.72C260.428 59.1893 260.321 59.5307 260.108 59.744C259.937 59.9147 259.596 60 259.084 60ZM243.148 41.824H251.852C252.321 41.824 252.556 41.5893 252.556 41.12V38.048C252.556 36.6827 252.279 35.7227 251.724 35.168C251.169 34.6133 250.209 34.336 248.844 34.336H246.156C244.791 34.336 243.831 34.6133 243.276 35.168C242.721 35.7227 242.444 36.6827 242.444 38.048V41.12C242.444 41.5893 242.679 41.824 243.148 41.824ZM287.445 54.304V58.72C287.445 59.1893 287.338 59.5307 287.125 59.744C286.954 59.9147 286.613 60 286.101 60H276.565C273.194 60 270.592 59.104 268.757 57.312C266.922 55.52 266.005 52.9387 266.005 49.568V37.792C266.005 34.4213 266.922 31.84 268.757 30.048C270.592 28.256 273.194 27.36 276.565 27.36H286.101C286.997 27.36 287.445 27.808 287.445 28.704V33.12C287.445 33.5893 287.338 33.9307 287.125 34.144C286.954 34.3147 286.613 34.4 286.101 34.4H277.845C276.522 34.4 275.562 34.6987 274.965 35.296C274.41 35.8507 274.133 36.8107 274.133 38.176V49.184C274.133 50.5493 274.41 51.5307 274.965 52.128C275.562 52.6827 276.522 52.96 277.845 52.96H286.101C286.997 52.96 287.445 53.408 287.445 54.304ZM293.661 34.4H291.102C290.59 34.4 290.227 34.3147 290.014 34.144C289.843 33.9733 289.758 33.632 289.758 33.12V28.704C289.758 27.808 290.206 27.36 291.102 27.36H293.661C294.131 27.36 294.366 27.1253 294.366 26.656V20.576C294.366 19.68 294.835 19.232 295.774 19.232H301.15C302.046 19.232 302.494 19.68 302.494 20.576V26.656C302.494 27.1253 302.75 27.36 303.262 27.36H308.253C309.15 27.36 309.598 27.808 309.598 28.704V33.12C309.598 33.5893 309.491 33.9307 309.278 34.144C309.107 34.3147 308.766 34.4 308.253 34.4H303.262C302.75 34.4 302.494 34.6347 302.494 35.104V49.248C302.494 50.5707 302.792 51.5307 303.39 52.128C303.987 52.6827 304.968 52.96 306.333 52.96H308.894C309.79 52.96 310.238 53.408 310.238 54.304V58.72C310.238 59.1893 310.131 59.5307 309.918 59.744C309.747 59.9147 309.406 60 308.894 60H304.99C301.619 60 298.995 59.104 297.118 57.312C295.283 55.52 294.366 52.96 294.366 49.632V35.104C294.366 34.6347 294.131 34.4 293.661 34.4ZM347.119 60H340.143C336.772 60 334.169 59.104 332.335 57.312C330.5 55.52 329.583 52.9387 329.583 49.568V29.28C329.583 25.9093 330.5 23.328 332.335 21.536C334.169 19.744 336.772 18.848 340.143 18.848H347.119C350.447 18.848 353.028 19.7653 354.863 21.6C356.74 23.392 357.679 25.952 357.679 29.28V32.288C357.679 33.2267 357.209 33.696 356.271 33.696H350.895C349.999 33.696 349.551 33.2267 349.551 32.288V29.664C349.551 28.2987 349.252 27.3387 348.655 26.784C348.1 26.1867 347.14 25.888 345.775 25.888H341.423C340.1 25.888 339.14 26.1867 338.543 26.784C337.988 27.3387 337.711 28.2987 337.711 29.664V49.184C337.711 50.5493 337.988 51.5307 338.543 52.128C339.14 52.6827 340.1 52.96 341.423 52.96H345.775C347.14 52.96 348.1 52.6827 348.655 52.128C349.252 51.5307 349.551 50.5493 349.551 49.184V46.56C349.551 45.6213 349.999 45.152 350.895 45.152H356.271C357.209 45.152 357.679 45.6213 357.679 46.56V49.568C357.679 52.896 356.74 55.4773 354.863 57.312C353.028 59.104 350.447 60 347.119 60ZM371.124 60H365.684C364.788 60 364.34 59.552 364.34 58.656V16.352C364.34 15.456 364.788 15.008 365.684 15.008H371.124C372.02 15.008 372.468 15.456 372.468 16.352V58.656C372.468 59.552 372.02 60 371.124 60ZM395.449 60H389.753C386.382 60 383.779 59.104 381.945 57.312C380.11 55.52 379.193 52.9387 379.193 49.568V37.792C379.193 34.4213 380.11 31.84 381.945 30.048C383.779 28.256 386.382 27.36 389.753 27.36H395.449C398.777 27.36 401.358 28.2773 403.193 30.112C405.07 31.904 406.009 34.464 406.009 37.792V49.568C406.009 52.896 405.07 55.4773 403.193 57.312C401.358 59.104 398.777 60 395.449 60ZM390.969 53.024H394.233C395.598 53.024 396.558 52.7467 397.113 52.192C397.71 51.6373 398.009 50.6773 398.009 49.312V38.048C398.009 36.6827 397.71 35.7227 397.113 35.168C396.558 34.6133 395.598 34.336 394.233 34.336H390.969C389.603 34.336 388.643 34.6133 388.089 35.168C387.534 35.7227 387.257 36.6827 387.257 38.048V49.312C387.257 50.6773 387.534 51.6373 388.089 52.192C388.643 52.7467 389.603 53.024 390.969 53.024ZM424.171 60H422.059C418.774 60 416.278 59.104 414.571 57.312C412.907 55.52 412.075 52.9387 412.075 49.568V28.704C412.075 27.808 412.523 27.36 413.419 27.36H418.859C419.755 27.36 420.203 27.808 420.203 28.704V49.184C420.203 50.5493 420.48 51.5307 421.035 52.128C421.632 52.6827 422.592 52.96 423.915 52.96H426.283C429.227 52.96 430.699 51.3387 430.699 48.096V28.704C430.699 27.808 431.147 27.36 432.043 27.36H437.419C438.358 27.36 438.827 27.808 438.827 28.704V58.656C438.827 59.552 438.358 60 437.419 60H432.043C431.147 60 430.699 59.552 430.699 58.656V56.544H430.443C429.974 57.696 429.142 58.5707 427.947 59.168C426.752 59.7227 425.494 60 424.171 60ZM457.863 60H455.239C451.954 60 449.458 59.104 447.751 57.312C446.087 55.52 445.255 52.9387 445.255 49.568V37.792C445.255 34.4213 446.087 31.84 447.751 30.048C449.458 28.256 451.954 27.36 455.239 27.36H457.863C459.186 27.36 460.444 27.6587 461.639 28.256C462.834 28.8107 463.666 29.664 464.135 30.816H464.391V16.352C464.391 15.456 464.839 15.008 465.735 15.008H471.175C472.071 15.008 472.519 15.456 472.519 16.352V58.656C472.519 59.552 472.071 60 471.175 60H465.735C464.839 60 464.391 59.552 464.391 58.656V56.544H464.135C463.666 57.696 462.834 58.5707 461.639 59.168C460.444 59.7227 459.186 60 457.863 60ZM464.391 48.096V39.264C464.391 36.0213 462.919 34.4 459.975 34.4H457.095C455.73 34.4 454.77 34.6987 454.215 35.296C453.66 35.8507 453.383 36.8107 453.383 38.176V49.184C453.383 50.5493 453.66 51.5307 454.215 52.128C454.77 52.6827 455.73 52.96 457.095 52.96H459.975C462.919 52.96 464.391 51.3387 464.391 48.096Z" fill="#333333"/>
<path d="M128.284 95H126.52C126.203 95 126.044 94.8413 126.044 94.524V77.472C126.044 77.1547 126.203 76.996 126.52 76.996H133.072C134.435 76.996 135.499 77.388 136.264 78.172C137.048 78.9373 137.44 80.0013 137.44 81.364V83.716C137.44 85.8627 136.553 87.216 134.78 87.776V87.888L137.888 94.44C138.093 94.8133 137.972 95 137.524 95H135.788C135.34 95 135.051 94.8413 134.92 94.524L131.924 88.084H129.096C128.872 88.084 128.76 88.1773 128.76 88.364V94.524C128.76 94.8413 128.601 95 128.284 95ZM129.068 85.844H132.624C134.005 85.844 134.696 85.1627 134.696 83.8V81.448C134.696 80.0667 134.005 79.376 132.624 79.376H129.068C128.863 79.376 128.76 79.4693 128.76 79.656V85.564C128.76 85.7507 128.863 85.844 129.068 85.844ZM151.048 95H145C143.618 95 142.545 94.6173 141.78 93.852C141.033 93.0867 140.66 92.0227 140.66 90.66V85.06C140.66 83.6787 141.033 82.6147 141.78 81.868C142.545 81.1027 143.618 80.72 145 80.72H147.296C148.677 80.72 149.75 81.1027 150.516 81.868C151.281 82.6147 151.664 83.6787 151.664 85.06V88.616C151.664 88.952 151.496 89.12 151.16 89.12H143.656C143.45 89.12 143.348 89.2133 143.348 89.4V90.604C143.348 91.9667 144.029 92.648 145.392 92.648H151.048C151.384 92.648 151.552 92.816 151.552 93.152V94.552C151.552 94.8507 151.384 95 151.048 95ZM143.656 87.216H148.668C148.854 87.216 148.948 87.1227 148.948 86.936V85.144C148.948 84.4347 148.789 83.9213 148.472 83.604C148.154 83.268 147.641 83.1 146.932 83.1H145.392C144.682 83.1 144.169 83.268 143.852 83.604C143.534 83.9213 143.376 84.4347 143.376 85.144V86.936C143.376 87.1227 143.469 87.216 143.656 87.216ZM157.128 95H155.364C155.047 95 154.888 94.8413 154.888 94.524V75.792C154.888 75.4747 155.047 75.316 155.364 75.316H157.128C157.446 75.316 157.604 75.4747 157.604 75.792V94.524C157.604 94.8413 157.446 95 157.128 95ZM161.424 78.34V75.792C161.424 75.4933 161.573 75.344 161.872 75.344H163.692C163.99 75.344 164.14 75.4933 164.14 75.792V78.34C164.14 78.6573 163.99 78.816 163.692 78.816H161.872C161.573 78.816 161.424 78.6573 161.424 78.34ZM161.424 94.524V81.196C161.424 80.8787 161.573 80.72 161.872 80.72H163.664C163.981 80.72 164.14 80.8787 164.14 81.196V94.524C164.14 94.7107 164.102 94.8413 164.028 94.916C163.972 94.972 163.86 95 163.692 95H161.9C161.582 95 161.424 94.8413 161.424 94.524ZM172.971 95H171.879C170.497 95 169.424 94.6173 168.659 93.852C167.912 93.0867 167.539 92.0227 167.539 90.66V85.06C167.539 83.6787 167.912 82.6147 168.659 81.868C169.424 81.1027 170.497 80.72 171.879 80.72H178.151C178.487 80.72 178.655 80.8787 178.655 81.196V94.524C178.655 94.8413 178.487 95 178.151 95H176.387C176.069 95 175.911 94.8413 175.911 94.524V93.516H175.799C175.351 94.5053 174.408 95 172.971 95ZM175.911 90.24V83.38C175.911 83.1933 175.808 83.1 175.603 83.1H172.271C170.927 83.1 170.255 83.7907 170.255 85.172V90.548C170.255 91.9293 170.927 92.62 172.271 92.62H173.615C175.145 92.62 175.911 91.8267 175.911 90.24ZM185.171 92.62H188.643C189.987 92.62 190.659 91.9293 190.659 90.548V85.06C190.659 83.6787 189.987 82.988 188.643 82.988H187.159C185.628 82.988 184.863 83.772 184.863 85.34V92.312C184.863 92.5173 184.965 92.62 185.171 92.62ZM182.147 94.524V75.792C182.147 75.4747 182.305 75.316 182.623 75.316H184.387C184.704 75.316 184.863 75.4747 184.863 75.792V82.12H184.975C185.441 81.112 186.384 80.608 187.803 80.608H189.035C190.416 80.608 191.489 80.9907 192.255 81.756C193.02 82.5027 193.403 83.5573 193.403 84.92V90.66C193.403 92.0227 193.02 93.0867 192.255 93.852C191.489 94.6173 190.416 95 189.035 95H182.623C182.305 95 182.147 94.8413 182.147 94.524ZM199.019 95H197.255C196.938 95 196.779 94.8413 196.779 94.524V75.792C196.779 75.4747 196.938 75.316 197.255 75.316H199.019C199.336 75.316 199.495 75.4747 199.495 75.792V94.524C199.495 94.8413 199.336 95 199.019 95ZM213.282 95H207.234C205.853 95 204.779 94.6173 204.014 93.852C203.267 93.0867 202.894 92.0227 202.894 90.66V85.06C202.894 83.6787 203.267 82.6147 204.014 81.868C204.779 81.1027 205.853 80.72 207.234 80.72H209.53C210.911 80.72 211.985 81.1027 212.75 81.868C213.515 82.6147 213.898 83.6787 213.898 85.06V88.616C213.898 88.952 213.73 89.12 213.394 89.12H205.89C205.685 89.12 205.582 89.2133 205.582 89.4V90.604C205.582 91.9667 206.263 92.648 207.626 92.648H213.282C213.618 92.648 213.786 92.816 213.786 93.152V94.552C213.786 94.8507 213.618 95 213.282 95ZM205.89 87.216H210.902C211.089 87.216 211.182 87.1227 211.182 86.936V85.144C211.182 84.4347 211.023 83.9213 210.706 83.604C210.389 83.268 209.875 83.1 209.166 83.1H207.626C206.917 83.1 206.403 83.268 206.086 83.604C205.769 83.9213 205.61 84.4347 205.61 85.144V86.936C205.61 87.1227 205.703 87.216 205.89 87.216ZM229.367 95H226.399C226.063 95 225.867 94.8413 225.811 94.524L222.479 77.472C222.441 77.1547 222.6 76.996 222.955 76.996H225.111C225.465 76.996 225.652 77.1547 225.671 77.472L227.939 92.144H228.107L231.411 77.416C231.448 77.136 231.616 76.996 231.915 76.996H234.267C234.565 76.996 234.743 77.136 234.799 77.416L238.131 92.144H238.299L240.567 77.5C240.585 77.164 240.772 76.996 241.127 76.996H243.283C243.656 76.996 243.815 77.164 243.759 77.5L240.427 94.524C240.371 94.8413 240.184 95 239.867 95H236.899C236.581 95 236.395 94.8413 236.339 94.524L233.175 80.356H233.063L229.899 94.524C229.843 94.8413 229.665 95 229.367 95ZM256.212 95H250.164C248.783 95 247.709 94.6173 246.944 93.852C246.197 93.0867 245.824 92.0227 245.824 90.66V85.06C245.824 83.6787 246.197 82.6147 246.944 81.868C247.709 81.1027 248.783 80.72 250.164 80.72H252.46C253.841 80.72 254.915 81.1027 255.68 81.868C256.445 82.6147 256.828 83.6787 256.828 85.06V88.616C256.828 88.952 256.66 89.12 256.324 89.12H248.82C248.615 89.12 248.512 89.2133 248.512 89.4V90.604C248.512 91.9667 249.193 92.648 250.556 92.648H256.212C256.548 92.648 256.716 92.816 256.716 93.152V94.552C256.716 94.8507 256.548 95 256.212 95ZM248.82 87.216H253.832C254.019 87.216 254.112 87.1227 254.112 86.936V85.144C254.112 84.4347 253.953 83.9213 253.636 83.604C253.319 83.268 252.805 83.1 252.096 83.1H250.556C249.847 83.1 249.333 83.268 249.016 83.604C248.699 83.9213 248.54 84.4347 248.54 85.144V86.936C248.54 87.1227 248.633 87.216 248.82 87.216ZM262.936 92.62H266.408C267.752 92.62 268.424 91.9293 268.424 90.548V85.06C268.424 83.6787 267.752 82.988 266.408 82.988H264.924C263.394 82.988 262.628 83.772 262.628 85.34V92.312C262.628 92.5173 262.731 92.62 262.936 92.62ZM259.912 94.524V75.792C259.912 75.4747 260.071 75.316 260.388 75.316H262.152C262.47 75.316 262.628 75.4747 262.628 75.792V82.12H262.74C263.207 81.112 264.15 80.608 265.568 80.608H266.8C268.182 80.608 269.255 80.9907 270.02 81.756C270.786 82.5027 271.168 83.5573 271.168 84.92V90.66C271.168 92.0227 270.786 93.0867 270.02 93.852C269.255 94.6173 268.182 95 266.8 95H260.388C260.071 95 259.912 94.8413 259.912 94.524ZM281.021 90.632V89.904C281.021 89.5867 281.179 89.428 281.497 89.428H283.289C283.606 89.428 283.765 89.5867 283.765 89.904V90.408C283.765 91.192 283.933 91.7613 284.269 92.116C284.623 92.452 285.202 92.62 286.005 92.62H287.937C288.739 92.62 289.318 92.4427 289.673 92.088C290.027 91.7147 290.205 91.1173 290.205 90.296V89.652C290.205 89.0547 289.971 88.588 289.505 88.252C289.057 87.8973 288.497 87.6733 287.825 87.58C287.153 87.468 286.415 87.3187 285.613 87.132C284.81 86.9453 284.073 86.7307 283.401 86.488C282.729 86.2453 282.159 85.788 281.693 85.116C281.245 84.444 281.021 83.5853 281.021 82.54V81.364C281.021 80.0013 281.403 78.9373 282.169 78.172C282.953 77.388 284.026 76.996 285.389 76.996H288.357C289.738 76.996 290.811 77.388 291.577 78.172C292.361 78.9373 292.753 80.0013 292.753 81.364V81.98C292.753 82.2973 292.594 82.456 292.277 82.456H290.485C290.167 82.456 290.009 82.2973 290.009 81.98V81.616C290.009 80.8133 289.831 80.244 289.477 79.908C289.141 79.5533 288.571 79.376 287.769 79.376H286.005C285.202 79.376 284.623 79.5627 284.269 79.936C283.933 80.2907 283.765 80.9067 283.765 81.784V82.652C283.765 83.492 284.371 84.0613 285.585 84.36C286.126 84.4907 286.714 84.6027 287.349 84.696C288.002 84.7893 288.655 84.9293 289.309 85.116C289.962 85.3027 290.559 85.5547 291.101 85.872C291.642 86.1707 292.081 86.6373 292.417 87.272C292.753 87.888 292.921 88.644 292.921 89.54V90.632C292.921 91.9947 292.529 93.068 291.745 93.852C290.979 94.6173 289.915 95 288.553 95H285.417C284.054 95 282.981 94.6173 282.197 93.852C281.413 93.068 281.021 91.9947 281.021 90.632ZM306.524 95H300.476C299.095 95 298.022 94.6173 297.256 93.852C296.51 93.0867 296.136 92.0227 296.136 90.66V85.06C296.136 83.6787 296.51 82.6147 297.256 81.868C298.022 81.1027 299.095 80.72 300.476 80.72H302.772C304.154 80.72 305.227 81.1027 305.992 81.868C306.758 82.6147 307.14 83.6787 307.14 85.06V88.616C307.14 88.952 306.972 89.12 306.636 89.12H299.132C298.927 89.12 298.824 89.2133 298.824 89.4V90.604C298.824 91.9667 299.506 92.648 300.868 92.648H306.524C306.86 92.648 307.028 92.816 307.028 93.152V94.552C307.028 94.8507 306.86 95 306.524 95ZM299.132 87.216H304.144C304.331 87.216 304.424 87.1227 304.424 86.936V85.144C304.424 84.4347 304.266 83.9213 303.948 83.604C303.631 83.268 303.118 83.1 302.408 83.1H300.868C300.159 83.1 299.646 83.268 299.328 83.604C299.011 83.9213 298.852 84.4347 298.852 85.144V86.936C298.852 87.1227 298.946 87.216 299.132 87.216ZM312.465 95H310.701C310.384 95 310.225 94.8413 310.225 94.524V81.196C310.225 80.8787 310.384 80.72 310.701 80.72H312.465C312.782 80.72 312.941 80.8787 312.941 81.196V82.26H313.053C313.24 81.7933 313.594 81.42 314.117 81.14C314.658 80.86 315.256 80.72 315.909 80.72H316.945C317.262 80.72 317.421 80.8787 317.421 81.196V82.652C317.421 83.0067 317.262 83.156 316.945 83.1H315.265C313.716 83.1 312.941 83.9493 312.941 85.648V94.524C312.941 94.8413 312.782 95 312.465 95ZM318.708 80.72H320.584C320.883 80.72 321.06 80.8787 321.116 81.196L324.028 92.452H324.224L327.08 81.196C327.155 80.8787 327.351 80.72 327.668 80.72H329.516C329.852 80.72 329.964 80.8787 329.852 81.196L326.072 94.496C325.997 94.832 325.792 95 325.456 95H322.768C322.432 95 322.227 94.832 322.152 94.496L318.372 81.196C318.297 80.8787 318.409 80.72 318.708 80.72ZM332.295 78.34V75.792C332.295 75.4933 332.444 75.344 332.743 75.344H334.563C334.861 75.344 335.011 75.4933 335.011 75.792V78.34C335.011 78.6573 334.861 78.816 334.563 78.816H332.743C332.444 78.816 332.295 78.6573 332.295 78.34ZM332.295 94.524V81.196C332.295 80.8787 332.444 80.72 332.743 80.72H334.535C334.852 80.72 335.011 80.8787 335.011 81.196V94.524C335.011 94.7107 334.973 94.8413 334.899 94.916C334.843 94.972 334.731 95 334.563 95H332.771C332.453 95 332.295 94.8413 332.295 94.524ZM347.37 93.096V94.552C347.37 94.8507 347.202 95 346.866 95H342.75C341.368 95 340.295 94.6173 339.53 93.852C338.783 93.0867 338.41 92.0227 338.41 90.66V85.06C338.41 83.6787 338.783 82.6147 339.53 81.868C340.295 81.1027 341.368 80.72 342.75 80.72H346.866C347.202 80.72 347.37 80.8787 347.37 81.196V82.652C347.37 82.9507 347.202 83.1 346.866 83.1H343.142C341.798 83.1 341.126 83.7907 341.126 85.172V90.548C341.126 91.9293 341.798 92.62 343.142 92.62H346.866C347.202 92.62 347.37 92.7787 347.37 93.096ZM360.145 95H354.097C352.716 95 351.643 94.6173 350.877 93.852C350.131 93.0867 349.757 92.0227 349.757 90.66V85.06C349.757 83.6787 350.131 82.6147 350.877 81.868C351.643 81.1027 352.716 80.72 354.097 80.72H356.393C357.775 80.72 358.848 81.1027 359.613 81.868C360.379 82.6147 360.761 83.6787 360.761 85.06V88.616C360.761 88.952 360.593 89.12 360.257 89.12H352.753C352.548 89.12 352.445 89.2133 352.445 89.4V90.604C352.445 91.9667 353.127 92.648 354.489 92.648H360.145C360.481 92.648 360.649 92.816 360.649 93.152V94.552C360.649 94.8507 360.481 95 360.145 95ZM352.753 87.216H357.765C357.952 87.216 358.045 87.1227 358.045 86.936V85.144C358.045 84.4347 357.887 83.9213 357.569 83.604C357.252 83.268 356.739 83.1 356.029 83.1H354.489C353.78 83.1 353.267 83.268 352.949 83.604C352.632 83.9213 352.473 84.4347 352.473 85.144V86.936C352.473 87.1227 352.567 87.216 352.753 87.216ZM368.942 95H363.79C363.473 95 363.314 94.8413 363.314 94.524V93.152C363.314 92.8533 363.473 92.704 363.79 92.704H368.494C369.707 92.704 370.314 92.284 370.314 91.444V91.108C370.314 90.3613 369.875 89.792 368.998 89.4L365.946 87.944C364.994 87.496 364.303 87.0013 363.874 86.46C363.445 85.9187 363.23 85.2093 363.23 84.332C363.23 81.924 364.565 80.72 367.234 80.72H371.882C372.181 80.72 372.33 80.8787 372.33 81.196V82.568C372.33 82.8853 372.181 83.044 371.882 83.044H367.794C367.234 83.044 366.805 83.1467 366.506 83.352C366.207 83.5387 366.058 83.7907 366.058 84.108V84.416C366.058 85.0133 366.534 85.536 367.486 85.984L370.566 87.552C371.537 87.9813 372.199 88.4947 372.554 89.092C372.927 89.6707 373.114 90.4267 373.114 91.36C373.114 93.7867 371.723 95 368.942 95Z" fill="#2E85B6"/>
<defs>
<clipPath id="clip0_339_2">
<rect width="111" height="91" fill="white" transform="translate(0 19)"/>
</clipPath>
</defs>
</svg>
