<svg width="108" height="108" fill="none" xmlns="http://www.w3.org/2000/svg"><path d="M90.83 42.154v-.62a30.094 30.094 0 0 0-8.732-21.506 30.19 30.19 0 0 0-9.83-6.612 30.232 30.232 0 0 0-23.246 0 30.19 30.19 0 0 0-9.83 6.612 30.094 30.094 0 0 0-8.732 21.507c0 .356 0 .709.02 1.062a21.318 21.318 0 0 0-18.236.736 21.277 21.277 0 0 0-7.124 6.051 21.235 21.235 0 0 0-3.648 17.854 21.237 21.237 0 0 0 4.181 8.354 21.281 21.281 0 0 0 7.365 5.758 21.316 21.316 0 0 0 9.127 2.049h61.45a21.304 21.304 0 0 0 13.694-4.977 21.221 21.221 0 0 0 4.725-26.929 21.275 21.275 0 0 0-11.184-9.327v-.012Z" fill="#8CBED9"/><path d="M92.762 39.894a32.305 32.305 0 0 0-2.639-11.644 2.197 2.197 0 0 0-2.845-1.046 2.197 2.197 0 0 0-1.186 2.786 27.954 27.954 0 0 1 2.19 8.668 23.534 23.534 0 0 0-19.067 5.234 23.46 23.46 0 0 0-6.135 8.04 23.421 23.421 0 0 0-2.176 9.872 2.19 2.19 0 0 0 1.336 2.103 2.202 2.202 0 0 0 2.915-1.238 2.19 2.19 0 0 0 .143-.865c0-3.769 1.12-7.453 3.217-10.587A19.082 19.082 0 0 1 77.08 44.2a19.118 19.118 0 0 1 20.802 4.13 19.04 19.04 0 0 1 4.138 20.768 19.065 19.065 0 0 1-7.03 8.552 19.11 19.11 0 0 1-10.605 3.211h-6.088a2.203 2.203 0 0 0-2.106 1.335 2.193 2.193 0 0 0 1.24 2.91c.276.105.57.153.866.142h6.088a23.507 23.507 0 0 0 15.018-5.429 23.437 23.437 0 0 0 8.065-13.763 23.41 23.41 0 0 0-2.619-15.73 23.47 23.47 0 0 0-12.09-10.419l.002-.012ZM29.026 80.848h-5.464a19.115 19.115 0 0 1-8.083-1.798 19.084 19.084 0 0 1-6.559-5.046 19.044 19.044 0 0 1-4.13-15.605 19.039 19.039 0 0 1 3.207-7.622 19.076 19.076 0 0 1 6.139-5.549A19.112 19.112 0 0 1 30.25 43.94a2.202 2.202 0 0 0 2.829-1.284c.133-.361.17-.75.108-1.13.02-.116.03-.233.031-.35 0-15.388 12.374-27.905 27.585-27.905a27.217 27.217 0 0 1 10.907 2.245 27.18 27.18 0 0 1 9.09 6.424 2.199 2.199 0 0 0 3.692-2.275 2.194 2.194 0 0 0-.489-.728 31.528 31.528 0 0 0-10.55-7.453 31.572 31.572 0 0 0-12.659-2.6c-16.898 0-30.776 13.313-31.905 30.078a23.522 23.522 0 0 0-18.854 3.662 23.458 23.458 0 0 0-6.67 7.196 23.417 23.417 0 0 0-2.198 19.05c1 3.15 2.655 6.054 4.858 8.52a23.478 23.478 0 0 0 7.923 5.794 23.514 23.514 0 0 0 9.604 2.051h5.464a2.2 2.2 0 0 0 2.281-2.194 2.192 2.192 0 0 0-1.414-2.05 2.2 2.2 0 0 0-.867-.143h.01ZM47.654 71.78v25.686c0 .682-.232 1.335-.646 1.817-.413.481-.974.752-1.56.752-.584 0-1.145-.27-1.558-.752-.414-.482-.646-1.135-.646-1.817V71.781c0-.681.232-1.335.646-1.816.413-.482.974-.753 1.559-.753s1.146.27 1.56.753c.413.481.645 1.135.645 1.816Z" fill="#2E85B6"/><path d="M55.005 93.774a1.884 1.884 0 0 1-.289.984c-.187.302-.457.56-.786.748l-7.167 4.174a2.699 2.699 0 0 1-1.713.185c-.577-.127-1.08-.438-1.408-.871a1.879 1.879 0 0 1-.37-1.473c.092-.513.4-.979.863-1.305l7.167-4.174a2.677 2.677 0 0 1 1.786-.3c.618.109 1.16.427 1.51.884.27.336.412.738.407 1.148Z" fill="#2E85B6"/><path d="M47.838 97.948c.005.41-.137.811-.406 1.148-.35.457-.894.775-1.511.885-.617.109-1.26 0-1.786-.301l-7.167-4.174c-.464-.326-.772-.792-.863-1.306a1.88 1.88 0 0 1 .37-1.472c.328-.434.83-.744 1.408-.871a2.7 2.7 0 0 1 1.712.185l7.168 4.174c.328.189.599.446.786.748.188.302.287.64.289.984ZM60.278 97.431V71.746c0-.681.233-1.335.646-1.816.414-.482.974-.753 1.56-.753.584 0 1.145.271 1.559.753.413.481.646 1.135.646 1.816v25.686c0 .68-.233 1.334-.646 1.816-.414.481-.975.752-1.56.752-.584 0-1.145-.27-1.559-.752-.413-.482-.646-1.135-.646-1.817Z" fill="#2E85B6"/><path d="M52.927 75.438c.002-.343.102-.681.29-.984.187-.302.457-.559.785-.748l7.168-4.174a2.7 2.7 0 0 1 1.712-.184c.577.127 1.08.437 1.408.87.33.434.461.96.37 1.473-.091.514-.399.98-.862 1.306L56.63 77.17a2.677 2.677 0 0 1-1.786.3c-.617-.11-1.16-.427-1.51-.885a1.793 1.793 0 0 1-.407-1.148Z" fill="#2E85B6"/><path d="M60.094 71.265c-.005-.41.137-.812.407-1.148.35-.458.893-.776 1.51-.885a2.677 2.677 0 0 1 1.787.3l7.167 4.174c.463.327.77.792.862 1.306a1.879 1.879 0 0 1-.37 1.472c-.328.434-.83.745-1.408.872a2.7 2.7 0 0 1-1.712-.185l-7.167-4.174a2.225 2.225 0 0 1-.787-.748 1.884 1.884 0 0 1-.289-.984Z" fill="#2E85B6"/></svg>