<svg width="480" height="110" fill="none" xmlns="http://www.w3.org/2000/svg"><g clip-path="url(#a)"><path d="M90.83 52.154v-.62a30.094 30.094 0 0 0-8.732-21.506 30.19 30.19 0 0 0-9.83-6.612 30.232 30.232 0 0 0-23.246 0 30.19 30.19 0 0 0-9.83 6.612 30.094 30.094 0 0 0-8.732 21.507c0 .356 0 .709.02 1.062a21.318 21.318 0 0 0-18.236.736 21.277 21.277 0 0 0-7.124 6.051 21.235 21.235 0 0 0-3.648 17.854 21.237 21.237 0 0 0 4.181 8.354 21.281 21.281 0 0 0 7.365 5.758 21.316 21.316 0 0 0 9.127 2.049h61.45a21.304 21.304 0 0 0 13.694-4.977 21.221 21.221 0 0 0 4.725-26.929 21.275 21.275 0 0 0-11.184-9.327v-.012Z" fill="#8CBED9"/><path d="M92.762 49.894a32.305 32.305 0 0 0-2.639-11.644 2.197 2.197 0 0 0-2.845-1.046 2.197 2.197 0 0 0-1.186 2.786 27.954 27.954 0 0 1 2.19 8.668 23.534 23.534 0 0 0-19.067 5.234 23.46 23.46 0 0 0-6.135 8.04 23.421 23.421 0 0 0-2.176 9.872 2.19 2.19 0 0 0 1.336 2.103 2.202 2.202 0 0 0 2.915-1.238 2.19 2.19 0 0 0 .143-.865c0-3.769 1.12-7.453 3.217-10.587A19.082 19.082 0 0 1 77.08 54.2a19.118 19.118 0 0 1 20.802 4.13 19.04 19.04 0 0 1 4.138 20.768 19.065 19.065 0 0 1-7.03 8.552 19.11 19.11 0 0 1-10.605 3.211h-6.088a2.203 2.203 0 0 0-2.106 1.335 2.193 2.193 0 0 0 1.24 2.91c.276.105.57.153.866.142h6.088a23.507 23.507 0 0 0 15.018-5.429 23.437 23.437 0 0 0 8.065-13.763 23.41 23.41 0 0 0-2.619-15.73 23.47 23.47 0 0 0-12.09-10.419l.002-.012ZM29.026 90.848h-5.464a19.115 19.115 0 0 1-8.083-1.798 19.084 19.084 0 0 1-6.559-5.046 19.044 19.044 0 0 1-4.13-15.605 19.039 19.039 0 0 1 3.207-7.622 19.076 19.076 0 0 1 6.139-5.549A19.112 19.112 0 0 1 30.25 53.94a2.202 2.202 0 0 0 2.829-1.284c.133-.361.17-.75.108-1.13.02-.116.03-.233.031-.35 0-15.388 12.374-27.905 27.585-27.905a27.217 27.217 0 0 1 10.907 2.245 27.18 27.18 0 0 1 9.09 6.424 2.199 2.199 0 0 0 3.692-2.275 2.194 2.194 0 0 0-.489-.728 31.528 31.528 0 0 0-10.55-7.453 31.572 31.572 0 0 0-12.659-2.6c-16.898 0-30.776 13.313-31.905 30.078a23.522 23.522 0 0 0-18.854 3.662 23.458 23.458 0 0 0-6.67 7.196 23.417 23.417 0 0 0-2.198 19.05c1 3.15 2.655 6.054 4.858 8.52a23.478 23.478 0 0 0 7.923 5.794 23.514 23.514 0 0 0 9.604 2.051h5.464a2.2 2.2 0 0 0 2.281-2.194 2.192 2.192 0 0 0-1.414-2.05 2.2 2.2 0 0 0-.867-.143h.01ZM47.654 81.78v25.686c0 .682-.232 1.335-.646 1.817-.413.481-.974.752-1.56.752-.584 0-1.145-.271-1.558-.752-.414-.482-.646-1.135-.646-1.817V81.781c0-.681.232-1.335.646-1.816.413-.482.974-.753 1.559-.753s1.146.27 1.56.753c.413.481.645 1.135.645 1.816Z" fill="#2E85B6"/><path d="M55.005 103.774a1.883 1.883 0 0 1-.289.984 2.226 2.226 0 0 1-.786.748l-7.167 4.174a2.698 2.698 0 0 1-1.713.185c-.577-.127-1.08-.438-1.408-.871a1.88 1.88 0 0 1-.37-1.473c.092-.513.4-.979.863-1.305l7.167-4.174a2.68 2.68 0 0 1 1.786-.301c.618.11 1.16.428 1.51.885.27.336.412.738.407 1.148Z" fill="#2E85B6"/><path d="M47.838 107.948c.005.41-.137.811-.406 1.147-.35.458-.894.776-1.511.885-.617.11-1.26.002-1.786-.3l-7.167-4.174c-.464-.326-.772-.792-.863-1.306a1.878 1.878 0 0 1 .37-1.472c.328-.434.83-.744 1.408-.871a2.697 2.697 0 0 1 1.712.185l7.168 4.173c.328.19.599.447.786.749.188.302.287.64.289.984ZM60.278 107.431V81.746c0-.681.233-1.335.646-1.816.414-.482.974-.753 1.56-.753.584 0 1.145.271 1.559.753.413.481.646 1.135.646 1.816v25.685c0 .682-.233 1.335-.646 1.817-.414.481-.975.752-1.56.752-.584 0-1.145-.271-1.559-.752-.413-.482-.646-1.135-.646-1.817Z" fill="#2E85B6"/><path d="M52.927 85.438c.002-.343.102-.681.29-.984.187-.302.457-.559.785-.748l7.168-4.174a2.7 2.7 0 0 1 1.712-.184c.577.127 1.08.437 1.408.87.33.434.461.96.37 1.473-.091.514-.399.98-.862 1.306L56.63 87.17a2.677 2.677 0 0 1-1.786.3c-.617-.11-1.16-.427-1.51-.885a1.793 1.793 0 0 1-.407-1.148Z" fill="#2E85B6"/><path d="M60.094 81.265c-.005-.41.137-.812.407-1.148.35-.458.893-.776 1.51-.885a2.677 2.677 0 0 1 1.787.3l7.167 4.174c.463.327.77.792.862 1.306a1.879 1.879 0 0 1-.37 1.472c-.328.434-.83.745-1.408.872a2.7 2.7 0 0 1-1.712-.185l-7.167-4.174a2.225 2.225 0 0 1-.787-.748 1.884 1.884 0 0 1-.289-.984Z" fill="#2E85B6"/></g><path d="M131.944 60h-5.44c-.896 0-1.344-.448-1.344-1.344V20.192c0-.896.448-1.344 1.344-1.344h15.616c3.328 0 5.909.917 7.744 2.752 1.835 1.792 2.752 4.352 2.752 7.68v6.144c0 3.328-.917 5.91-2.752 7.744-1.835 1.792-4.416 2.688-7.744 2.688h-8.064c-.512 0-.768.235-.768.704v12.096c0 .896-.448 1.344-1.344 1.344Zm2.048-21.248h6.784c1.365 0 2.325-.277 2.88-.832.555-.597.832-1.557.832-2.88v-5.376c0-1.365-.277-2.325-.832-2.88-.555-.597-1.515-.896-2.88-.896h-6.784c-.469 0-.704.235-.704.704v11.456c0 .47.235.704.704.704ZM182.522 60h-14.144c-3.371 0-5.974-.896-7.808-2.688-1.835-1.792-2.752-4.373-2.752-7.744V37.792c0-3.37.917-5.952 2.752-7.744 1.834-1.792 4.437-2.688 7.808-2.688h5.056c3.37 0 5.973.896 7.808 2.688 1.834 1.792 2.752 4.373 2.752 7.744v8.128c0 .896-.448 1.344-1.344 1.344h-16.064c-.512 0-.768.235-.768.704v1.408c0 1.323.277 2.283.832 2.88.597.555 1.578.832 2.944.832h12.928c.896 0 1.344.47 1.344 1.408v4.224c0 .47-.107.81-.32 1.024-.171.17-.512.256-1.024.256Zm-15.936-18.176h8.704c.469 0 .704-.235.704-.704v-3.072c0-1.365-.278-2.325-.832-2.88-.555-.555-1.515-.832-2.88-.832h-2.688c-1.366 0-2.326.277-2.88.832-.555.555-.832 1.515-.832 2.88v3.072c0 .47.234.704.704.704ZM196.867 60h-5.44c-.896 0-1.344-.448-1.344-1.344V28.704c0-.896.448-1.344 1.344-1.344h5.44c.896 0 1.344.448 1.344 1.344v2.176h.256c.469-1.152 1.301-2.027 2.496-2.624a8.332 8.332 0 0 1 3.776-.896h2.304c.853 0 1.28.448 1.28 1.344v4.416c0 .512-.107.875-.32 1.088-.171.17-.491.235-.96.192h-4.416c-2.944 0-4.416 1.664-4.416 4.992v19.264c0 .896-.448 1.344-1.344 1.344Zm27.368-32.64h5.12c.512 0 .853.107 1.024.32.213.17.32.49.32.96v4.416c0 .896-.448 1.344-1.344 1.344h-5.12c-.469 0-.704.235-.704.704v23.552c0 .896-.469 1.344-1.408 1.344h-5.376c-.896 0-1.344-.448-1.344-1.344V35.104c0-.47-.256-.704-.768-.704h-2.944c-.896 0-1.344-.448-1.344-1.344V28.64c0-.512.085-.853.256-1.024.213-.17.576-.256 1.088-.256h2.944c.512 0 .768-.235.768-.704V25.44c0-3.37.875-5.952 2.624-7.744 1.792-1.792 4.373-2.688 7.744-2.688h3.648c.512 0 .853.107 1.024.32.171.17.256.49.256.96v4.416c0 .896-.427 1.344-1.28 1.344h-2.368c-1.365 0-2.304.299-2.816.896-.469.555-.704 1.515-.704 2.88v.832c0 .47.235.704.704.704ZM259.084 60H244.94c-3.371 0-5.973-.896-7.808-2.688-1.835-1.792-2.752-4.373-2.752-7.744V37.792c0-3.37.917-5.952 2.752-7.744 1.835-1.792 4.437-2.688 7.808-2.688h5.056c3.371 0 5.973.896 7.808 2.688 1.835 1.792 2.752 4.373 2.752 7.744v8.128c0 .896-.448 1.344-1.344 1.344h-16.064c-.512 0-.768.235-.768.704v1.408c0 1.323.277 2.283.832 2.88.597.555 1.579.832 2.944.832h12.928c.896 0 1.344.47 1.344 1.408v4.224c0 .47-.107.81-.32 1.024-.171.17-.512.256-1.024.256Zm-15.936-18.176h8.704c.469 0 .704-.235.704-.704v-3.072c0-1.365-.277-2.325-.832-2.88-.555-.555-1.515-.832-2.88-.832h-2.688c-1.365 0-2.325.277-2.88.832-.555.555-.832 1.515-.832 2.88v3.072c0 .47.235.704.704.704Zm44.297 12.48v4.416c0 .47-.107.81-.32 1.024-.171.17-.512.256-1.024.256h-9.536c-3.371 0-5.973-.896-7.808-2.688-1.835-1.792-2.752-4.373-2.752-7.744V37.792c0-3.37.917-5.952 2.752-7.744 1.835-1.792 4.437-2.688 7.808-2.688h9.536c.896 0 1.344.448 1.344 1.344v4.416c0 .47-.107.81-.32 1.024-.171.17-.512.256-1.024.256h-8.256c-1.323 0-2.283.299-2.88.896-.555.555-.832 1.515-.832 2.88v11.008c0 1.365.277 2.347.832 2.944.597.555 1.557.832 2.88.832h8.256c.896 0 1.344.448 1.344 1.344Zm6.216-19.904h-2.559c-.512 0-.875-.085-1.088-.256-.171-.17-.256-.512-.256-1.024v-4.416c0-.896.448-1.344 1.344-1.344h2.559c.47 0 .705-.235.705-.704v-6.08c0-.896.469-1.344 1.408-1.344h5.376c.896 0 1.344.448 1.344 1.344v6.08c0 .47.256.704.768.704h4.991c.897 0 1.345.448 1.345 1.344v4.416c0 .47-.107.81-.32 1.024-.171.17-.512.256-1.025.256h-4.991c-.512 0-.768.235-.768.704v14.144c0 1.323.298 2.283.896 2.88.597.555 1.578.832 2.943.832h2.561c.896 0 1.344.448 1.344 1.344v4.416c0 .47-.107.81-.32 1.024-.171.17-.512.256-1.024.256h-3.904c-3.371 0-5.995-.896-7.872-2.688-1.835-1.792-2.752-4.352-2.752-7.68V35.104c0-.47-.235-.704-.705-.704ZM347.119 60h-6.976c-3.371 0-5.974-.896-7.808-2.688-1.835-1.792-2.752-4.373-2.752-7.744V29.28c0-3.37.917-5.952 2.752-7.744 1.834-1.792 4.437-2.688 7.808-2.688h6.976c3.328 0 5.909.917 7.744 2.752 1.877 1.792 2.816 4.352 2.816 7.68v3.008c0 .939-.47 1.408-1.408 1.408h-5.376c-.896 0-1.344-.47-1.344-1.408v-2.624c0-1.365-.299-2.325-.896-2.88-.555-.597-1.515-.896-2.88-.896h-4.352c-1.323 0-2.283.299-2.88.896-.555.555-.832 1.515-.832 2.88v19.52c0 1.365.277 2.347.832 2.944.597.555 1.557.832 2.88.832h4.352c1.365 0 2.325-.277 2.88-.832.597-.597.896-1.579.896-2.944V46.56c0-.939.448-1.408 1.344-1.408h5.376c.938 0 1.408.47 1.408 1.408v3.008c0 3.328-.939 5.91-2.816 7.744-1.835 1.792-4.416 2.688-7.744 2.688Zm24.005 0h-5.44c-.896 0-1.344-.448-1.344-1.344V16.352c0-.896.448-1.344 1.344-1.344h5.44c.896 0 1.344.448 1.344 1.344v42.304c0 .896-.448 1.344-1.344 1.344Zm24.325 0h-5.696c-3.371 0-5.974-.896-7.808-2.688-1.835-1.792-2.752-4.373-2.752-7.744V37.792c0-3.37.917-5.952 2.752-7.744 1.834-1.792 4.437-2.688 7.808-2.688h5.696c3.328 0 5.909.917 7.744 2.752 1.877 1.792 2.816 4.352 2.816 7.68v11.776c0 3.328-.939 5.91-2.816 7.744-1.835 1.792-4.416 2.688-7.744 2.688Zm-4.48-6.976h3.264c1.365 0 2.325-.277 2.88-.832.597-.555.896-1.515.896-2.88V38.048c0-1.365-.299-2.325-.896-2.88-.555-.555-1.515-.832-2.88-.832h-3.264c-1.366 0-2.326.277-2.88.832-.555.555-.832 1.515-.832 2.88v11.264c0 1.365.277 2.325.832 2.88.554.555 1.514.832 2.88.832ZM424.171 60h-2.112c-3.285 0-5.781-.896-7.488-2.688-1.664-1.792-2.496-4.373-2.496-7.744V28.704c0-.896.448-1.344 1.344-1.344h5.44c.896 0 1.344.448 1.344 1.344v20.48c0 1.365.277 2.347.832 2.944.597.555 1.557.832 2.88.832h2.368c2.944 0 4.416-1.621 4.416-4.864V28.704c0-.896.448-1.344 1.344-1.344h5.376c.939 0 1.408.448 1.408 1.344v29.952c0 .896-.469 1.344-1.408 1.344h-5.376c-.896 0-1.344-.448-1.344-1.344v-2.112h-.256c-.469 1.152-1.301 2.027-2.496 2.624a8.861 8.861 0 0 1-3.776.832Zm33.692 0h-2.624c-3.285 0-5.781-.896-7.488-2.688-1.664-1.792-2.496-4.373-2.496-7.744V37.792c0-3.37.832-5.952 2.496-7.744 1.707-1.792 4.203-2.688 7.488-2.688h2.624c1.323 0 2.581.299 3.776.896 1.195.555 2.027 1.408 2.496 2.56h.256V16.352c0-.896.448-1.344 1.344-1.344h5.44c.896 0 1.344.448 1.344 1.344v42.304c0 .896-.448 1.344-1.344 1.344h-5.44c-.896 0-1.344-.448-1.344-1.344v-2.112h-.256c-.469 1.152-1.301 2.027-2.496 2.624a8.861 8.861 0 0 1-3.776.832Zm6.528-11.904v-8.832c0-3.243-1.472-4.864-4.416-4.864h-2.88c-1.365 0-2.325.299-2.88.896-.555.555-.832 1.515-.832 2.88v11.008c0 1.365.277 2.347.832 2.944.555.555 1.515.832 2.88.832h2.88c2.944 0 4.416-1.621 4.416-4.864Z" fill="#333"/><path d="M128.256 95h-1.736c-.317 0-.476-.159-.476-.476V77.472c0-.317.159-.476.476-.476h1.568c.299 0 .504.103.616.308l6.776 12.18h.112V77.472c0-.317.159-.476.476-.476h1.736c.317 0 .476.159.476.476v17.052c0 .317-.159.476-.476.476h-1.512c-.299 0-.541-.15-.728-.448l-6.72-12.04h-.112v12.012c0 .317-.159.476-.476.476Zm23.94 0h-6.048c-1.381 0-2.454-.383-3.22-1.148-.746-.765-1.12-1.83-1.12-3.192v-5.6c0-1.381.374-2.445 1.12-3.192.766-.765 1.839-1.148 3.22-1.148h2.296c1.382 0 2.455.383 3.22 1.148.766.747 1.148 1.81 1.148 3.192v3.556c0 .336-.168.504-.504.504h-7.504c-.205 0-.308.093-.308.28v1.204c0 1.363.682 2.044 2.044 2.044h5.656c.336 0 .504.168.504.504v1.4c0 .299-.168.448-.504.448Zm-7.392-7.784h5.012c.187 0 .28-.093.28-.28v-1.792c0-.71-.158-1.223-.476-1.54-.317-.336-.83-.504-1.54-.504h-1.54c-.709 0-1.222.168-1.54.504-.317.317-.476.83-.476 1.54v1.792c0 .187.094.28.28.28Zm11.513-4.116h-1.344c-.187 0-.318-.028-.392-.084-.056-.075-.084-.196-.084-.364v-1.456c0-.317.158-.476.476-.476h1.344c.186 0 .28-.093.28-.28v-2.52c0-.317.168-.476.504-.476h1.764c.317 0 .476.159.476.476v2.52c0 .187.102.28.308.28h2.604c.336 0 .504.159.504.476v1.456c0 .299-.168.448-.504.448h-2.604c-.206 0-.308.093-.308.28v7.196c0 1.363.7 2.044 2.1 2.044h1.092c.336 0 .504.159.504.476v1.456c0 .299-.168.448-.504.448h-1.512c-1.382 0-2.464-.373-3.248-1.12-.784-.747-1.176-1.801-1.176-3.164V83.38c0-.187-.094-.28-.28-.28ZM170.725 95h-2.408c-.28 0-.466-.159-.56-.476l-3.22-13.328c-.074-.317.038-.476.336-.476h2.016c.336 0 .523.159.56.476l2.044 10.584h.196l2.464-10.584c.056-.317.234-.476.532-.476h1.848c.318 0 .514.159.588.476l2.408 10.584h.196l2.044-10.584c.056-.317.243-.476.56-.476h2.016c.318 0 .43.159.336.476l-3.22 13.328c-.056.317-.242.476-.56.476h-2.408c-.298 0-.485-.159-.56-.476l-2.24-10.388h-.196l-2.212 10.388c-.056.317-.242.476-.56.476Zm20.872 0h-2.464c-1.382 0-2.455-.383-3.22-1.148-.747-.765-1.12-1.83-1.12-3.192v-5.6c0-1.381.373-2.445 1.12-3.192.765-.765 1.838-1.148 3.22-1.148h2.464c1.362 0 2.426.383 3.192 1.148.784.747 1.176 1.81 1.176 3.192v5.6c0 1.363-.392 2.427-1.176 3.192-.766.765-1.83 1.148-3.192 1.148Zm-2.072-2.38h1.708c1.344 0 2.016-.681 2.016-2.044v-5.432c0-1.363-.672-2.044-2.016-2.044h-1.708c-.71 0-1.223.168-1.54.504-.318.317-.476.83-.476 1.54v5.432c0 .71.158 1.232.476 1.568.317.317.83.476 1.54.476ZM201.422 95h-1.764c-.317 0-.476-.159-.476-.476V81.196c0-.317.159-.476.476-.476h1.764c.317 0 .476.159.476.476v1.064h.112c.187-.467.541-.84 1.064-1.12a3.842 3.842 0 0 1 1.792-.42h1.036c.317 0 .476.159.476.476v1.456c0 .355-.159.504-.476.448h-1.68c-1.549 0-2.324.85-2.324 2.548v8.876c0 .317-.159.476-.476.476Zm15.259-14.28h2.016c.168 0 .28.056.336.168.075.093.056.224-.056.392l-3.948 6.272v.112l4.256 6.776c.093.15.103.28.028.392-.056.112-.187.168-.392.168h-1.82c-.429 0-.747-.159-.952-.476l-3.948-6.468a.776.776 0 0 1 0-.756l3.668-6.132c.168-.299.439-.448.812-.448ZM210.801 95h-1.764c-.317 0-.476-.159-.476-.476V75.792c0-.317.159-.476.476-.476h1.764c.317 0 .476.159.476.476v18.732c0 .317-.159.476-.476.476Zm24.789 0h-3.248c-1.381 0-2.454-.383-3.22-1.148-.746-.765-1.12-1.83-1.12-3.192v-9.324c0-1.381.374-2.445 1.12-3.192.766-.765 1.839-1.148 3.22-1.148h3.248c1.363 0 2.427.383 3.192 1.148.766.747 1.148 1.81 1.148 3.192v1.344c0 .336-.168.504-.504.504h-1.764c-.317 0-.476-.168-.476-.504v-1.232c0-1.381-.672-2.072-2.016-2.072h-2.436c-1.344 0-2.016.69-2.016 2.072v9.1c0 1.381.672 2.072 2.016 2.072h2.436c1.344 0 2.016-.69 2.016-2.072v-1.232c0-.336.159-.504.476-.504h1.764c.336 0 .504.168.504.504v1.344c0 1.363-.382 2.427-1.148 3.192-.765.765-1.829 1.148-3.192 1.148Zm14.057 0h-2.464c-1.381 0-2.454-.383-3.22-1.148-.746-.765-1.12-1.83-1.12-3.192v-5.6c0-1.381.374-2.445 1.12-3.192.766-.765 1.839-1.148 3.22-1.148h2.464c1.363 0 2.427.383 3.192 1.148.784.747 1.176 1.81 1.176 3.192v5.6c0 1.363-.392 2.427-1.176 3.192-.765.765-1.829 1.148-3.192 1.148Zm-2.072-2.38h1.708c1.344 0 2.016-.681 2.016-2.044v-5.432c0-1.363-.672-2.044-2.016-2.044h-1.708c-.709 0-1.222.168-1.54.504-.317.317-.476.83-.476 1.54v5.432c0 .71.159 1.232.476 1.568.318.317.831.476 1.54.476ZM259.473 95h-1.764c-.318 0-.476-.159-.476-.476V81.196c0-.317.158-.476.476-.476h1.764c.317 0 .476.159.476.476v1.008h.112c.541-.99 1.53-1.484 2.968-1.484h.924c1.624 0 2.781.616 3.472 1.848a3.047 3.047 0 0 1 1.372-1.372 4.277 4.277 0 0 1 1.988-.476h.896c1.362 0 2.398.383 3.108 1.148.728.747 1.092 1.81 1.092 3.192v9.464c0 .317-.159.476-.476.476h-1.792c-.318 0-.476-.159-.476-.476v-9.352c0-1.381-.672-2.072-2.016-2.072h-.812c-1.55 0-2.324.812-2.324 2.436v8.988c0 .317-.168.476-.504.476h-1.764c-.318 0-.476-.159-.476-.476v-9.352c0-1.381-.672-2.072-2.016-2.072h-.98c-1.531 0-2.296.793-2.296 2.38v9.044c0 .317-.159.476-.476.476Zm22.039 3.948h-1.764c-.318 0-.476-.159-.476-.476V81.196c0-.317.158-.476.476-.476h1.764c.317 0 .476.159.476.476v1.008h.112c.448-.99 1.39-1.484 2.828-1.484h1.428c1.344 0 2.37.373 3.08 1.12.728.747 1.092 1.82 1.092 3.22v5.6c0 1.381-.364 2.455-1.092 3.22-.71.747-1.736 1.12-3.08 1.12h-1.428c-1.438 0-2.38-.495-2.828-1.484h-.112v4.956c0 .317-.159.476-.476.476Zm2.772-6.328h1.484c1.344 0 2.016-.69 2.016-2.072v-5.376c0-1.381-.672-2.072-2.016-2.072h-1.484c-1.531 0-2.296.793-2.296 2.38v4.76c0 1.587.765 2.38 2.296 2.38ZM298.916 95h-1.092c-1.381 0-2.455-.383-3.22-1.148-.747-.765-1.12-1.83-1.12-3.192v-5.6c0-1.381.373-2.445 1.12-3.192.765-.765 1.839-1.148 3.22-1.148h6.272c.336 0 .504.159.504.476v13.328c0 .317-.168.476-.504.476h-1.764c-.317 0-.476-.159-.476-.476v-1.008h-.112c-.448.99-1.391 1.484-2.828 1.484Zm2.94-4.76v-6.86c0-.187-.103-.28-.308-.28h-3.332c-1.344 0-2.016.69-2.016 2.072v5.376c0 1.381.672 2.072 2.016 2.072h1.344c1.531 0 2.296-.793 2.296-2.38Zm8.476 4.76h-1.764c-.317 0-.476-.159-.476-.476V81.196c0-.317.159-.476.476-.476h1.764c.317 0 .476.159.476.476v1.008h.112c.448-.99 1.391-1.484 2.828-1.484h1.232c1.363 0 2.408.373 3.136 1.12.728.747 1.092 1.82 1.092 3.22v9.464c0 .317-.168.476-.504.476h-1.764c-.317 0-.476-.159-.476-.476v-9.352c0-1.381-.681-2.072-2.044-2.072h-1.316c-1.531 0-2.296.793-2.296 2.38v9.044c0 .317-.159.476-.476.476Zm13.905 4.536h-1.484c-.317 0-.476-.159-.476-.476v-1.428c0-.336.159-.504.476-.504h.644c1.139 0 1.923-.224 2.352-.672.448-.448.821-1.185 1.12-2.212h-1.12c-.28 0-.476-.159-.588-.476l-3.724-12.572c-.075-.317.047-.476.364-.476h1.876c.299 0 .485.159.56.476l3.052 10.976h.112l3.052-10.976c.056-.317.243-.476.56-.476h1.792c.355 0 .504.168.448.504l-3.836 13.468c-.429 1.568-1.036 2.763-1.82 3.584-.784.84-1.904 1.26-3.36 1.26Z" fill="#2E85B6"/><defs><clipPath id="a"><path fill="#fff" transform="translate(0 19)" d="M0 0h111v91H0z"/></clipPath></defs></svg>